<svg xmlns="http://www.w3.org/2000/svg" xmlns:xlink="http://www.w3.org/1999/xlink" width="100" height="40"><defs><linearGradient id="a"><stop offset="0" stop-color="#fd9823"/><stop offset="1" stop-color="#f4c94a"/></linearGradient><linearGradient xlink:href="#a" id="b" gradientUnits="userSpaceOnUse" gradientTransform="translate(80 -286.417)" x1="-77.973" y1="306.095" x2="18" y2="306.095"/></defs><path d="M10.611 12.133l-3 4.748L2 17.104l3.59 4.32-1.524 5.406 5.22-2.08 4.67 3.12-.366-5.606L18 18.785 12.557 17.4zM30.611 12.133l-3 4.748-5.611.223 3.59 4.32-1.524 5.406 5.22-2.08 4.67 3.12-.366-5.606L38 18.785 32.557 17.4z" fill="url(#b)"/><path d="M93.956 27.869l-4.671-3.119-5.218 2.08 1.523-5.407-3.59-4.32 5.612-.221 2.999-4.75 1.946 5.27L98 18.785l-4.41 3.478zM73.956 27.869l-4.67-3.119-5.218 2.08 1.523-5.407L62 17.104l5.612-.222 2.998-4.75 1.946 5.27L78 18.785l-4.41 3.478zM53.955 27.87l-4.67-3.12-5.218 2.08 1.523-5.406-3.59-4.32 5.612-.222 2.999-4.75 1.945 5.27L58 18.786l-4.41 3.479z" fill="#dadada"/></svg>