<svg xmlns="http://www.w3.org/2000/svg" width="100" height="40"><g fill="#dadada"><path d="M93.956 27.869l-4.671-3.119-5.218 2.08 1.523-5.407-3.59-4.32 5.612-.221 2.999-4.75 1.946 5.27L98 18.785l-4.41 3.478zM73.956 27.869l-4.67-3.119-5.218 2.08 1.523-5.407L62 17.104l5.612-.222 2.998-4.75 1.946 5.27L78 18.785l-4.41 3.478zM53.955 27.87l-4.67-3.12-5.218 2.08 1.523-5.406-3.59-4.32 5.612-.222 2.999-4.75 1.945 5.27L58 18.786l-4.41 3.479zM33.955 27.868l-4.671-3.119-5.218 2.08 1.523-5.406-3.59-4.32 5.612-.222 2.999-4.75 1.946 5.27 5.443 1.384-4.41 3.478zM13.955 27.868L9.284 24.75l-5.218 2.08 1.523-5.406L2 17.103l5.612-.222 2.999-4.75 1.946 5.27 5.443 1.384-4.41 3.478z"/></g></svg>