<svg xmlns="http://www.w3.org/2000/svg" xmlns:xlink="http://www.w3.org/1999/xlink" width="100" height="40"><defs><linearGradient id="a"><stop offset="0" stop-color="#fd9823"/><stop offset="1" stop-color="#f4c94a"/></linearGradient><linearGradient xlink:href="#a" id="b" gradientUnits="userSpaceOnUse" gradientTransform="translate(80 -286.417)" x1="-77.973" y1="306.095" x2="18" y2="306.095"/></defs><path d="M10.611 12.133l-3 4.748L2 17.104l3.59 4.32-1.524 5.406 5.22-2.08 4.67 3.12-.366-5.606L18 18.785 12.557 17.4zm20 0l-3 4.748-5.611.223 3.59 4.32-1.524 5.406 5.22-2.08 4.67 3.12-.366-5.606L38 18.785 32.557 17.4zm20 0l-3 4.748-5.611.223 3.59 4.32-1.524 5.406 5.22-2.08 4.67 3.12-.366-5.606L58 18.785 52.557 17.4zm20 0l-3 4.748-5.611.223 3.59 4.32-1.524 5.406 5.22-2.08 4.67 3.12-.366-5.606L78 18.785 72.557 17.4z" fill="url(#b)"/><path d="M92.872-14.064L88.2-17.183l-5.218 2.08 1.523-5.406-3.59-4.32 5.612-.222 2.999-4.75 1.945 5.27 5.444 1.384-4.41 3.478zM72.872-14.064L68.2-17.183l-5.218 2.08 1.523-5.406-3.59-4.32 5.612-.222 2.999-4.75 1.945 5.27 5.444 1.384-4.41 3.478zM52.872-14.064L48.2-17.183l-5.218 2.08 1.523-5.406-3.59-4.32 5.612-.222 2.999-4.75 1.945 5.27 5.444 1.384-4.41 3.478zM32.872-14.064L28.2-17.183l-5.218 2.08 1.523-5.406-3.59-4.32 5.612-.222 2.999-4.75 1.945 5.27 5.444 1.384-4.41 3.478zM12.872-14.064L8.2-17.183l-5.218 2.08 1.523-5.406-3.59-4.32 5.612-.222 2.999-4.75 1.945 5.27 5.444 1.384-4.41 3.478zM93.956 27.869l-4.671-3.119-5.218 2.08 1.523-5.407-3.59-4.32 5.612-.221 2.999-4.75 1.946 5.27L98 18.785l-4.41 3.478z" fill="#dadada"/></svg>