<svg xmlns="http://www.w3.org/2000/svg" xmlns:xlink="http://www.w3.org/1999/xlink" width="100" height="100"><defs><linearGradient id="a"><stop offset="0" stop-color="#4ac3a9"/><stop offset="1" stop-color="#27c2ad"/></linearGradient><linearGradient xlink:href="#a" id="c" x1="50.005" y1="304.929" x2="49.995" y2="311.238" gradientUnits="userSpaceOnUse" gradientTransform="translate(0 8)"/><linearGradient xlink:href="#a" id="b" x1="33.147" y1="329.209" x2="67" y2="336.116" gradientUnits="userSpaceOnUse" gradientTransform="matrix(1.11765 0 0 1.11765 -5.882 -41.593)"/></defs><path d="M94.461 47.343l-6.162 2.617m5.944-5.07l-6.012 2.916m5.66-5.352l-5.847 3.206m5.364-5.618l-5.67 3.486m5.056-5.868l-5.48 3.756m4.737-6.1l-5.277 4.015m4.251-6.676L86.12 37.28m3.882-6.859l-4.688 4.766m3.545-6.943l-4.438 4.983m3.177-7.094l-4.177 5.187m2.803-7.228l-3.907 5.378m2.423-7.341l-3.627 5.556m1.768-7.733l-3.07 6.016m1.355-7.785l-2.81 6.076m1-7.75l-2.497 6.2m.6-7.77l-2.18 6.304m.202-7.767l-1.86 6.392m-.195-7.745l-1.537 6.464m-.587-7.703l-1.213 6.52m-1.334-7.805l-.529 6.723m-1.73-7.692l-.272 6.68m-2.036-7.526l.059 6.674m-2.41-7.392l.388 6.65m-2.776-7.24l.717 6.61m-3.134-7.068l1.043 6.553m-3.88-6.919l1.763 6.52m-4.221-6.68l1.995 6.39m-4.46-6.415l2.31 6.27m-4.771-6.16l2.616 6.135M44.36 5.82l2.914 5.986m-5.346-5.61l3.202 5.823m-5.609-5.314l3.481 5.646M36.77 7.462l4.125 5.337m-6.45-4.54l4.287 5.134m-6.566-4.21l4.528 4.905m-6.752-3.859l4.755 4.666m-6.92-3.5l4.971 4.416m-7.07-3.134l5.175 4.156m-7.2-2.76l5.363 3.885m-7.612-2.118l5.84 3.344m-7.683-1.709l5.92 3.098M17.81 19.21l6.058 2.792m-7.712-.966l6.18 2.48m-7.73-.567l6.283 2.165m-7.727-.17l6.372 1.845m-7.904.564l6.643 1.183m-7.83.97l6.625.922m-7.694 1.292l6.65.592m-7.596 1.676l6.658.262m-7.48 2.055l6.65-.067m-7.343 2.426l6.625-.396m-7.19 2.79l6.584-.724m-7.064 3.54l6.574-1.442M5.6 46.32l6.467-1.678m-6.602 4.138l6.364-1.996M5.466 51.25l6.245-2.314M5.6 53.72l6.11-2.627m-5.84 5.084l5.96-2.93m-5.556 5.368l5.793-3.225m-5.151 6.024l5.508-3.898m-4.808 6.261l5.31-4.07m-4.483 6.39l5.09-4.322m-4.137 6.59l4.86-4.56m-3.786 6.77l4.619-4.784m-3.426 6.93l4.368-4.994m-2.843 7.393l3.89-5.512m-2.448 7.495l3.649-5.603m-2.103 7.503l3.366-5.76m-1.72 7.575l3.076-5.905m-1.336 7.628l2.781-6.034m-.95 7.66l2.48-6.148m-.248 7.9l1.859-6.473m.159 7.868l1.603-6.486m.488 7.77l1.28-6.543m.88 7.713l.954-6.585m1.267 7.636l.626-6.611m1.652 7.54l.295-6.621m2.418 7.535l-.422-6.726m2.804 7.37l-.675-6.653m3.09 7.163l-1.01-6.598m3.452 6.976l-1.344-6.527m3.803 6.77l-1.672-6.44m4.143 6.549l-1.997-6.338m4.47 6.311L49.433 88.3m4.782 6.058l-2.625-6.085m5.481 5.723l-3.33-5.867m5.756 5.405l-3.524-5.688m5.918 5.095l-3.8-5.494m6.156 4.77l-4.063-5.286m6.373 4.435l-4.312-5.067m6.57 4.09l-4.55-4.835m6.75 3.739l-4.773-4.596m7.236 3.17l-5.31-4.134m7.354 2.78l-5.416-3.906m7.384 2.444l-5.588-3.63m7.473 2.065l-5.745-3.347m7.543 1.683l-5.888-3.058m7.851 1.013L76.863 77.3m7.858.607l-6.306-2.22m7.787.267l-6.393-1.907m7.767-.124l-6.465-1.59m7.729-.514l-6.523-1.268m7.67-.903l-6.563-.943m7.74-1.657l-6.737-.248m7.613-2.054l-6.687.01m7.435-2.358l-6.666.346m7.284-2.734l-6.628.682m7.114-3.102l-6.573 1.015m6.926-3.46l-6.503 1.346m6.72-3.81l-6.415 1.676m6.497-4.147l-6.311 1.998" fill="none" stroke="#1cc1b5" stroke-width="1.25" stroke-linecap="square" stroke-linejoin="round" stroke-dashoffset="30" paint-order="stroke fill markers"/><path d="M82.5 50a.501.501 0 1 1-.024-1.002A.501.501 0 0 1 82.5 50m-.143-2.998a.499.499 0 0 1-.364-.12.485.485 0 0 1-.082-.686.5.5 0 0 1 .89.246.518.518 0 0 1-.102.387.5.5 0 0 1-.342.173m-.418-2.973a.498.498 0 0 1-.373-.083.475.475 0 0 1-.205-.299.5.5 0 1 1 .578.382m-.688-2.92a.5.5 0 0 1-.287-.96.5.5 0 0 1 .381.029.5.5 0 0 1-.094.93m-.955-2.845a.502.502 0 0 1-.646-.286.484.484 0 0 1 .01-.365.5.5 0 0 1 .647-.287.519.519 0 0 1 .266.675.5.5 0 0 1-.277.264m-1.212-2.746a.5.5 0 0 1-.453-.893.5.5 0 1 1 .453.892m-1.459-2.622a.5.5 0 1 1-.534-.845.5.5 0 0 1 .534.845m-1.694-2.477a.5.5 0 1 1-.614-.788.5.5 0 0 1 .614.788m-1.915-2.311a.5.5 0 1 1-.689-.724.5.5 0 0 1 .689.724m-2.123-2.123a.5.5 0 1 1 0 0m-2.311-1.915a.5.5 0 0 1-.333.189.482.482 0 0 1-.355-.08.5.5 0 1 1 .575-.818.522.522 0 0 1 .215.34.5.5 0 0 1-.102.37m-2.477-1.695a.5.5 0 1 1-.177-.702.53.53 0 0 1 .242.325.5.5 0 0 1-.065.377m-2.623-1.46a.5.5 0 0 1-.671.222.48.48 0 0 1-.24-.274.5.5 0 0 1 .287-.646.523.523 0 0 1 .402.027.5.5 0 0 1 .222.672m-2.745-1.212a.5.5 0 0 1-.647.286.488.488 0 0 1-.262-.258.5.5 0 0 1 .223-.67.514.514 0 0 1 .399-.005.5.5 0 0 1 .287.647m-2.845-.955a.5.5 0 1 1-.963-.267.5.5 0 0 1 .963.267m-2.921-.688a.5.5 0 1 1-.985-.172.5.5 0 0 1 .985.172m-2.973-.418a.5.5 0 1 1-.996-.074.5.5 0 0 1 .996.074M50 17.5a.5.5 0 1 1-.999.025A.5.5 0 0 1 50 17.5m-2.998.143a.5.5 0 0 1-.12.364.485.485 0 0 1-.686.082.5.5 0 0 1 .246-.89.518.518 0 0 1 .387.102.5.5 0 0 1 .173.342m-2.973.418a.5.5 0 0 1-.083.373.476.476 0 0 1-.299.205.5.5 0 1 1-.22-.976.526.526 0 0 1 .397.075.5.5 0 0 1 .205.323m-2.92.688a.5.5 0 0 1-.96.287.5.5 0 0 1 .029-.381.526.526 0 0 1 .314-.254.5.5 0 0 1 .616.348m-2.845.955a.5.5 0 0 1-.287.646.484.484 0 0 1-.365-.01.5.5 0 0 1-.286-.647.519.519 0 0 1 .674-.267.5.5 0 0 1 .264.277m-2.745 1.213a.5.5 0 0 1-.893.453.5.5 0 1 1 .892-.453m-2.622 1.459a.5.5 0 1 1-.844.534.5.5 0 0 1 .844-.534m-2.477 1.694a.5.5 0 1 1-.788.614.5.5 0 0 1 .788-.614m-2.311 1.915a.5.5 0 1 1-.725.689.5.5 0 0 1 .725-.689m-2.123 2.123a.5.5 0 1 1 0 0m-1.915 2.311a.5.5 0 0 1 .189.333.48.48 0 0 1-.08.355.5.5 0 1 1-.818-.575.522.522 0 0 1 .34-.215.5.5 0 0 1 .37.102m-1.695 2.477a.5.5 0 1 1-.702.177.499.499 0 0 1 .702-.177m-1.46 2.623a.5.5 0 0 1 .222.671.48.48 0 0 1-.274.24.5.5 0 0 1-.646-.287.522.522 0 0 1 .027-.402.5.5 0 0 1 .672-.222m-1.212 2.745a.5.5 0 0 1 .286.647.488.488 0 0 1-.257.262.5.5 0 0 1-.672-.223.516.516 0 0 1-.004-.399.5.5 0 0 1 .647-.286m-.955 2.844a.5.5 0 1 1-.267.964.5.5 0 0 1 .267-.964m-.688 2.921a.5.5 0 1 1-.172.985.5.5 0 0 1 .172-.985m-.418 2.973a.5.5 0 1 1-.075.998.5.5 0 0 1 .075-.998M17.5 50a.501.501 0 1 1 .024 1.002A.501.501 0 0 1 17.5 50m.143 2.998a.499.499 0 0 1 .364.12.485.485 0 0 1 .082.686.5.5 0 0 1-.89-.246.518.518 0 0 1 .102-.387.5.5 0 0 1 .342-.173m.418 2.973a.498.498 0 0 1 .373.083.475.475 0 0 1 .205.299.5.5 0 1 1-.578-.382m.688 2.92a.5.5 0 0 1 .616.35.475.475 0 0 1-.039.359.5.5 0 0 1-.671.222.526.526 0 0 1-.254-.314.5.5 0 0 1 .348-.616m.955 2.845a.502.502 0 0 1 .646.286.484.484 0 0 1-.01.365.5.5 0 0 1-.647.287.519.519 0 0 1-.266-.675.5.5 0 0 1 .277-.264m1.212 2.746a.5.5 0 0 1 .453.893.5.5 0 1 1-.453-.892m1.459 2.622a.5.5 0 1 1 .534.845.5.5 0 0 1-.534-.845m1.694 2.477a.5.5 0 1 1 .614.788.5.5 0 0 1-.614-.788m1.915 2.311a.5.5 0 1 1 .689.724.5.5 0 0 1-.689-.724m2.123 2.123a.5.5 0 1 1 0 0m2.311 1.915a.5.5 0 0 1 .333-.189.482.482 0 0 1 .355.08.5.5 0 1 1-.575.818.522.522 0 0 1-.215-.34.5.5 0 0 1 .102-.37m2.477 1.695a.5.5 0 1 1 .177.702.53.53 0 0 1-.242-.325.5.5 0 0 1 .065-.377m2.623 1.46a.5.5 0 0 1 .671-.222c.119.06.191.15.24.274a.5.5 0 0 1-.287.646.523.523 0 0 1-.402-.027.5.5 0 0 1-.222-.672m2.745 1.212a.5.5 0 0 1 .647-.286.488.488 0 0 1 .262.258.5.5 0 0 1-.223.67.514.514 0 0 1-.399.005.5.5 0 0 1-.287-.647m2.845.955a.5.5 0 1 1 .963.267.5.5 0 0 1-.963-.267m2.921.688a.5.5 0 1 1 .985.172.5.5 0 0 1-.985-.172m2.973.418a.5.5 0 1 1 .996.074.5.5 0 0 1-.996-.074M50 82.5a.5.5 0 1 1 .999-.025.5.5 0 0 1-.999.025m2.998-.143a.5.5 0 0 1 .12-.364.485.485 0 0 1 .686-.082.5.5 0 0 1-.246.89.518.518 0 0 1-.387-.102.5.5 0 0 1-.173-.342m2.973-.418a.5.5 0 0 1 .083-.373.476.476 0 0 1 .299-.205.5.5 0 1 1 .22.976.526.526 0 0 1-.397-.075.5.5 0 0 1-.205-.323m2.92-.688a.5.5 0 0 1 .96-.287.5.5 0 0 1-.029.381.526.526 0 0 1-.314.254.5.5 0 0 1-.616-.348m2.845-.955a.5.5 0 0 1 .287-.646.484.484 0 0 1 .365.01.5.5 0 0 1 .286.647.519.519 0 0 1-.674.267.5.5 0 0 1-.264-.277m2.745-1.213a.5.5 0 0 1 .893-.453.5.5 0 1 1-.892.453m2.622-1.459a.5.5 0 1 1 .844-.534.5.5 0 0 1-.844.534m2.477-1.694a.5.5 0 1 1 .788-.614.5.5 0 0 1-.788.614m2.311-1.915a.5.5 0 1 1 .724-.689.5.5 0 0 1-.724.689m2.123-2.123a.5.5 0 1 1 0 0m1.915-2.311a.5.5 0 0 1-.189-.333.48.48 0 0 1 .08-.355.5.5 0 1 1 .818.575.522.522 0 0 1-.34.215.5.5 0 0 1-.37-.102m1.695-2.477a.5.5 0 1 1 .702-.177.53.53 0 0 1-.325.242.5.5 0 0 1-.377-.065m1.46-2.623a.5.5 0 0 1-.222-.671.48.48 0 0 1 .274-.24.5.5 0 0 1 .646.287.522.522 0 0 1-.027.402.5.5 0 0 1-.672.222m1.212-2.745a.5.5 0 0 1-.286-.647.488.488 0 0 1 .257-.262.5.5 0 0 1 .672.223c.06.118.052.275.004.399a.5.5 0 0 1-.647.286m.955-2.844a.5.5 0 1 1 .267-.963.5.5 0 0 1-.267.963m.688-2.921a.5.5 0 1 1 .172-.985.5.5 0 0 1-.172.985m.418-2.973a.5.5 0 1 1 .075-.998.5.5 0 0 1-.075.998" fill="#e1e1e1" paint-order="stroke fill markers"/><text style="line-height:1.25" x="30.811" y="333.376" font-weight="400" font-size="33.029" font-family="sans-serif" letter-spacing="0" word-spacing="0" fill="url(#b)" stroke-width=".826" transform="translate(0 -270.542)"><tspan x="30.811" y="333.376" style="line-height:0;-inkscape-font-specification:'Microsoft YaHei UI Bold'" font-weight="700" font-size="8.808" font-family="Microsoft YaHei UI" letter-spacing="1.032">急速退款</tspan></text><path d="M64.465 320.542l-2.47-1.304-2.475 1.296.477-2.752L58 315.829l2.765-.397 1.24-2.503 1.232 2.507 2.763.406-2.003 1.946zm-12 0l-2.47-1.304-2.475 1.296.477-2.752L46 315.829l2.765-.397 1.24-2.503 1.232 2.507 2.763.406-2.003 1.946zm-12 0l-2.47-1.304-2.475 1.296.477-2.752L34 315.829l2.765-.397 1.24-2.503 1.232 2.507 2.763.406-2.003 1.946z" fill="url(#c)" fill-rule="evenodd" paint-order="stroke fill markers" transform="translate(0 -270.542)"/></svg>