<svg xmlns="http://www.w3.org/2000/svg" width="16" height="16"><path fill="#e71f1a" d="M8.002 0A8.002 8.002 0 0 0 0 8.002 8.002 8.002 0 0 0 8.002 16 8.002 8.002 0 0 0 16 8.002 8.002 8.002 0 0 0 8.002 0zm2.57 3.009c.053 0 .117.053.19.106l1.122.842c.053.042.151.114.151.19 0 .173-.302.313-.48.408-.011.397.03 2.143.03 2.494 0 .427 0 .545-.257.696a2.521 2.521 0 0 1-.918.264c-.416 0-.416-.2-.424-.476H8.788l-.007 1.214h2.026l.63-.896c.031-.038.095-.129.17-.129.065 0 .152.064.201.11l1.111.884c.076.065.114.095.114.17 0 .106-.083.114-.155.114H8.985c.604.684 1.908 1.474 4.116 1.84v.084c-.801.51-.919.937-1.134 1.716a5.859 5.859 0 0 1-3.164-3.636h-.022c-.012.521.064 2.804.064 3.265 0 .182 0 .363-.34.53a2.185 2.185 0 0 1-.93.196c-.458 0-.48-.227-.48-.367 0-.381.053-2.044.064-2.388a8.932 8.932 0 0 1-4.203 2.494l-.053-.083c1.334-.866 2.646-2.699 3.08-3.647H4.215c-.59 0-.78.022-1.025.064l-.17-.374c.352.03 1.013.053 1.387.053h2.775c-.012-.19 0-1.044-.012-1.214H6.017c0 .182-.01.34-.332.469-.19.075-.756.136-.96.136-.19 0-.34-.083-.34-.34l.022-.416c.02-.45.038-2.049.038-2.42 0-1.209-.038-1.454-.094-1.738l1.795.552h3.753l.492-.627c.053-.076.106-.14.181-.14zm-4.555 1.02v1.433h1.165V4.033H6.017zm2.771 0v1.433h1.198V4.033H8.788zm-2.77 1.69v1.557h1.164V5.72zm2.77 0v1.557h1.198V5.72z"/></svg>