<svg xmlns="http://www.w3.org/2000/svg" width="16" height="16"><path fill="#1e1e1e" d="M8.002 0A8.002 8.002 0 0 0 0 8.002 8.002 8.002 0 0 0 8.002 16 8.002 8.002 0 0 0 16 8.002 8.002 8.002 0 0 0 8.002 0zm2.608 2.884c.06 0 .113.034.223.11l1.089.725c.064.042.105.095.105.16 0 .116-.094.116-.158.116H8.55v.768h2.389l.438-.446c.042-.042.129-.129.19-.129.067 0 .12.053.207.129l1.138 1.107c.098.087.098.106.098.159 0 .238-.257.238-.31.238l-.45-.011a11.517 11.517 0 0 1-1.534.638l.329.25c.087.064.11.106.11.151 0 .09-.088.113-.17.113H9.328a2.294 2.294 0 0 0-.363.03l-.159-.317c.276.03.575.03.627.03h.503l.227-.378c.03-.049.083-.124.144-.124.064 0 .087.022.302.17.03-.106.053-.151.113-.386H9.33c-.023 0-.182.012-.363.034l-.159-.313c.234.022.522.022.692.022h.332l.19-.34c.033-.057.086-.128.162-.128.064 0 .136.052.212.113l.396.34c.084-.37.106-.518.136-.7h-2.38c0 .17.037.916.037 1.067 0 .189-.034.276-.163.37a1.966 1.966 0 0 1-.918.227c-.454 0-.469-.14-.469-.31 0-.212.034-1.164.034-1.353H4.68a2.699 2.699 0 0 1 .03.714l.375.012H5.7l.25-.363c.052-.076.094-.129.158-.129s.114.042.2.129l.379.34c.094.087.102.117.102.159 0 .117-.114.117-.17.117H4.977c-.011 0-.151 0-.321.022-.14.522-.446.896-.926.896a.771.771 0 0 1-.771-.797c0-.363.075-.416.725-.96.405-.34.469-.397.643-.95h.094a2.725 2.725 0 0 1 .205.553h2.441V3.99H5.141c-.632 0-.817.035-1.029.065l-.181-.37c.469.04.93.052 1.399.052H9.97l.476-.725c.042-.065.087-.129.163-.129zM6.033 6.203c.075 0 .17.075.215.117l.393.363c.064.064.095.098.095.15 0 .13-.114.13-.16.13H4.99a3.655 3.655 0 0 0-.355.018l-.159-.306c.33.03.567.03.726.03h.427l.246-.378c.041-.06.083-.124.159-.124zm.854.363l1.844.533c.053.01.16.056.16.14 0 .128-.16.17-.265.188 1.27.654 2.921.771 3.734.771.318 0 .522-.01.692-.022v.094a2.51 2.51 0 0 0-.907 1.697c-1.388-.31-2.612-.99-3.788-2.506A11.381 11.381 0 0 1 6.46 8.86l.51.011h1.058l.393-.68c.034-.068.076-.14.163-.14.064 0 .113.053.2.113l.813.673c.106.087.106.14.106.17 0 .117-.117.117-.163.117H6.781c-.578 0-.737.023-.888.046-1.482.726-2.506.873-2.922.937l-.023-.09a10.243 10.243 0 0 0 3.553-2.798 1.935 1.935 0 0 0 .386-.65zm3.167 2.774c.053 0 .204.106.246.136l1.02.654c.023.011.163.106.163.2 0 .151-.128.216-.48.386-.011.106 0 .605 0 .718 0 .37 0 1.232-1.909 1.372-.011-.094-.022-.14-.087-.533-.075-.514-.574-.884-.786-1.058v-.102a8.74 8.74 0 0 0 1.002.064c.234 0 .351 0 .287-.983H7.975c0 .333.046 1.913.046 2.264 0 .492-.597.662-1.153.662-.469 0-.522-.14-.522-.393 0-.363.042-2.125.042-2.533H5.33c-.647 0-.87.046-1.021.068l-.174-.378c.439.034.941.057 1.387.057H9.45l.453-.503c.045-.053.087-.094.151-.094z"/></svg>