<svg xmlns="http://www.w3.org/2000/svg" width="16" height="16"><path fill="#008f00" d="M8.002 0A8.002 8.002 0 0 0 0 8.002 8.002 8.002 0 0 0 8.002 16 8.002 8.002 0 0 0 16 8.002 8.002 8.002 0 0 0 8.002 0zM5.515 2.865l1.738.299c.152.019.235.064.235.17 0 .106-.064.159-.393.31v.438h1.523c0-.77-.064-.964-.129-1.175l1.698.276c.158.022.264.053.264.181 0 .053 0 .129-.34.28v.438h.907l.556-.794c.075-.113.128-.124.159-.124.064 0 .11.019.204.106l.884.778c.106.098.121.14.121.17 0 .117-.12.117-.174.117h-2.657c.011.065.011.579.011.62l.378.065c.136.022.2.064.2.158 0 .129-.098.17-.34.288v.555h.715l.499-.756c.041-.064.083-.128.159-.128.041 0 .087 0 .215.106l.907.744c.064.057.106.11.106.174 0 .106-.094.114-.159.114h-2.464a5.934 5.934 0 0 1-1.3 1.164c1.202-.03 1.33-.03 1.769-.053-.235-.458-.333-.53-.48-.67v-.101c1.757.117 2.26.948 2.26 1.474 0 .469-.427.726-.79.726-.416 0-.522-.28-.597-.473-.042-.094-.212-.556-.257-.65A20.35 20.35 0 0 1 8.02 8.875a1.232 1.232 0 0 1-.064.181l.597.163c.14.038.15.076.17.113-.008-.211-.02-.294-.053-.646l1.398.318c.152.034.257.056.257.173 0 .136-.189.246-.32.299v3.009c-.065.37-.79.453-.984.453-.306 0-.351-.113-.351-.242 0-.105.034-.62.034-.718.019-.616.064-1.852.03-2.559-.03.099-.094.14-.253.227-.053 1.429-.321 3.179-3.818 3.372l-.015-.099c2.049-.551 2.329-1.803 2.457-2.388-.718.642-2.351 1.527-3.235 1.942-.02.095-.084.288-.223.288-.095 0-.137-.099-.16-.152l-.566-1.674c.181 0 .245-.011.555-.042v-2.26c0-.707-.018-.854-.083-1.187l1.16.25c.17.03.212.038.212.136s-.189.181-.298.234v2.722l.378-.042V8.61a10.961 10.961 0 0 0-.087-1.803l.744.16c.152-.428.193-.606.28-.938h-1.58c-.51 0-.718.038-.854.064l-.17-.374c.416.041.99.053 1.13.053h1.44l.299-.33c-.053 0-.352.02-.393-.139-.034-.087-.023-.809-.023-.971H4.298c-.586 0-.787.022-1.02.064l-.179-.382a14.95 14.95 0 0 0 1.388.068h1.141a6.679 6.679 0 0 0-.117-1.217zm1.58 1.474v.567c0 .22-.129.37-.45.454l.718.631c.295.019.703.03 1.02.03h.545l-.008-.567c-.098-.007-.268-.019-.29-.2-.012-.083-.012-.779-.012-.915zM8.19 6.28c-.076 0-.37 0-.54.01.083.277-.122.3-.48.352-.182.023-.995.374-1.188.439l.288.06c.162.034.215.076.215.174 0 .128-.041.151-.404.321v1.15h.083l.321-.598c.02-.053.076-.136.159-.136.076 0 .162.087.193.113l.533.598c.087.087.094.098.105.162l.182.038L7 7.416c.276.023.405.023 1.323.023.114-.446.166-.658.212-1.16h-.34zm2.049 2.305l1.538.34c.083.02.234.053.234.182 0 .094-.034.113-.332.276 0 1.58 0 1.75.011 1.825 0 .064.011.159.159.159.162 0 .215-.11.245-.193.076-.151.246-.726.352-1.13h.098c0 .193-.011 1.058.095 1.172.268.287.31.332.31.533 0 1.07-.873 1.122-1.388 1.122-.797 0-1.043-.15-1.13-.351-.075-.159-.064-.972-.064-1.248 0-2.018 0-2.241-.128-2.69zm-4.158.454v1.55c.627-.107.896-.175 1.058-.205a3.969 3.969 0 0 0 .08-.843c0-.234-.02-.393-.03-.499H6.085z"/></svg>