<svg xmlns="http://www.w3.org/2000/svg" width="20" height="20"><path d="M10 0A10 10 0 0 0 0 10a10 10 0 0 0 10 10 10 10 0 0 0 10-10A10 10 0 0 0 10 0zm-.012 4.023c.953 0 1.79.227 2.508.68 1.047.656 1.57 1.568 1.57 2.734 0 .818-.286 1.553-.859 2.204-.344.385-1.042.984-2.094 1.796-1.245.959-2.229 1.826-2.953 2.602h5.39c.22 0 .4.073.54.219.187.193.281.443.281.75 0 .4-.138.687-.414.86a.74.74 0 0 1-.406.109H6.895c-.844 0-1.266-.373-1.266-1.118 0-.494.232-1.013.695-1.554.589-.698 1.716-1.727 3.383-3.086.76-.625 1.294-1.12 1.602-1.485.375-.453.562-.893.562-1.32 0-.531-.226-.945-.68-1.242-.349-.23-.757-.344-1.226-.344-.927 0-1.625.425-2.094 1.274-.213.385-.518.578-.914.578-.187 0-.367-.05-.539-.149-.307-.177-.461-.437-.461-.781 0-.36.146-.732.438-1.117a3.594 3.594 0 0 1 1.21-1.016 4.886 4.886 0 0 1 2.383-.594z" fill="#1a73eb"/></svg>