<svg xmlns="http://www.w3.org/2000/svg" width="20" height="20"><path d="M10 0A10 10 0 0 0 0 10a10 10 0 0 0 10 10 10 10 0 0 0 10-10A10 10 0 0 0 10 0zm-.137 3.895c.938 0 1.75.2 2.438.601 1.026.599 1.539 1.487 1.539 2.664 0 .755-.297 1.37-.89 1.844a3.093 3.093 0 0 1-1.43.617l-.141.024c.625.067 1.143.22 1.555.46.567.334.97.792 1.21 1.375.13.323.196.667.196 1.032 0 1.198-.495 2.127-1.485 2.789-.802.536-1.796.804-2.984.804-1.562 0-2.77-.434-3.625-1.304-.39-.39-.586-.763-.586-1.117a.81.81 0 0 1 .258-.618.979.979 0 0 1 .695-.28c.235 0 .433.075.594.226.036.031.115.122.234.273.568.688 1.375 1.031 2.422 1.031.6 0 1.097-.125 1.492-.375.537-.333.805-.817.805-1.453 0-.541-.161-.981-.484-1.32-.266-.276-.62-.456-1.063-.54-.312-.056-.817-.088-1.515-.093-.688 0-1.032-.292-1.032-.875 0-.557.357-.836 1.07-.836.636 0 1.178-.099 1.626-.297.646-.28.968-.747.968-1.398 0-.464-.184-.83-.554-1.102-.354-.26-.813-.39-1.375-.39-.906 0-1.602.336-2.086 1.008-.182.255-.422.382-.719.382a.943.943 0 0 1-.633-.234.776.776 0 0 1-.297-.617c0-.266.13-.552.391-.86a3.83 3.83 0 0 1 1.125-.875 4.822 4.822 0 0 1 2.281-.546z" fill="#1a73eb"/></svg>