<svg xmlns="http://www.w3.org/2000/svg" width="20" height="20"><path d="M10 0A10 10 0 0 0 0 10a10 10 0 0 0 10 10 10 10 0 0 0 10-10A10 10 0 0 0 10 0zm-.262 3.89c.235 0 .45.066.649.196.276.182.414.424.414.726 0 .172-.05.355-.149.547l-3.297 6.336h3.329V7.25c0-.23.078-.417.234-.563.187-.171.432-.257.734-.257.433 0 .724.153.875.46a.793.793 0 0 1 .078.36v4.445h1.57c.511 0 .766.302.766.907 0 .421-.14.7-.421.835a.728.728 0 0 1-.344.079h-1.57v1.742a.77.77 0 0 1-.188.531c-.182.214-.438.32-.766.32-.4 0-.687-.145-.859-.437a.78.78 0 0 1-.11-.414v-1.742h-4.5c-.37 0-.656-.11-.859-.329a1.072 1.072 0 0 1-.265-.742c0-.28.099-.617.296-1.008l3.586-7.054c.167-.328.433-.492.797-.492z" fill="#1a73eb"/></svg>