<svg xmlns="http://www.w3.org/2000/svg" width="20" height="20"><path d="M10 0A10 10 0 0 0 0 10a10 10 0 0 0 10 10 10 10 0 0 0 10-10A10 10 0 0 0 10 0zM7.578 4.016h5.25a.67.67 0 0 1 .352.093c.255.157.383.433.383.829 0 .328-.092.58-.274.757a.64.64 0 0 1-.46.18H8.413c-.302 0-.458.117-.469.352l-.11 2.546c.668-.557 1.475-.835 2.423-.835 1.015 0 1.88.312 2.594.937.838.734 1.257 1.716 1.257 2.945 0 1.354-.484 2.422-1.453 3.203-.791.641-1.768.961-2.93.961a5.442 5.442 0 0 1-2.468-.562c-.912-.453-1.367-.98-1.367-1.578 0-.23.083-.438.25-.625a.86.86 0 0 1 .664-.305c.26 0 .523.14.789.422.505.542 1.192.812 2.062.812.76 0 1.36-.273 1.797-.82.339-.422.508-.94.508-1.555 0-.645-.175-1.161-.524-1.546-.39-.428-.94-.641-1.648-.641-.724 0-1.36.294-1.906.883-.25.27-.534.406-.852.406-.745 0-1.117-.38-1.117-1.14v-.133l.18-4.258c.036-.886.531-1.328 1.484-1.328z" fill="#1a73eb"/></svg>