<svg xmlns="http://www.w3.org/2000/svg" width="20" height="20"><path d="M10 0A10 10 0 0 0 0 10a10 10 0 0 0 10 10 10 10 0 0 0 10-10A10 10 0 0 0 10 0zm1.219 3.766c.338 0 .601.135.789.406a.948.948 0 0 1 .187.555c0 .385-.242.7-.726.945a7.815 7.815 0 0 0-3.063 2.71 5.82 5.82 0 0 0-.672 1.329c.657-.912 1.597-1.367 2.82-1.367.902 0 1.693.263 2.376.789.953.734 1.43 1.737 1.43 3.008 0 1.02-.297 1.898-.891 2.632-.792.974-1.878 1.461-3.258 1.461-1.38 0-2.49-.463-3.328-1.39-.828-.922-1.242-2.133-1.242-3.633 0-1.39.427-2.742 1.28-4.055.938-1.448 2.144-2.52 3.618-3.218a1.58 1.58 0 0 1 .68-.172zM10.133 9.96c-.526 0-1 .17-1.422.508-.531.427-.797.984-.797 1.672 0 .64.182 1.169.547 1.586.411.468.974.703 1.687.703.646 0 1.167-.235 1.563-.703.349-.412.523-.943.523-1.594 0-.823-.283-1.43-.851-1.82-.344-.235-.76-.352-1.25-.352z" fill="#1a73eb"/></svg>