<svg xmlns="http://www.w3.org/2000/svg" width="20" height="20"><path d="M10 0A10 10 0 0 0 0 10a10 10 0 0 0 10 10 10 10 0 0 0 10-10A10 10 0 0 0 10 0zM7.059 4.063h6.03c.376 0 .675.085.9.257.265.203.398.487.398.852 0 .203-.06.458-.18.766A165.52 165.52 0 0 0 11.074 15c-.192.625-.528.938-1.008.938-.208 0-.403-.047-.586-.141-.296-.146-.445-.378-.445-.695 0-.162.073-.454.219-.875 1.463-4.256 2.385-6.886 2.766-7.891a.889.889 0 0 0 .078-.281c0-.1-.097-.149-.29-.149h-4c-.192 0-.288.097-.288.29V7.89a.721.721 0 0 1-.196.507c-.187.204-.442.305-.765.305-.386 0-.667-.14-.844-.422a.753.753 0 0 1-.102-.39V5.555c0-.995.482-1.492 1.446-1.492z" fill="#1a73eb"/></svg>