<svg xmlns="http://www.w3.org/2000/svg" width="20" height="20"><path d="M10 0A10 10 0 0 0 0 10a10 10 0 0 0 10 10 10 10 0 0 0 10-10A10 10 0 0 0 10 0zm-.164 3.871c1.245 0 2.349.35 3.312 1.047.459.333.831.71 1.118 1.133.187.27.28.534.28.789a.802.802 0 0 1-.163.508.954.954 0 0 1-.774.375c-.067 0-.14-.008-.218-.024a21.578 21.578 0 0 1-2.047 1.617c.864.365 1.518.756 1.96 1.172.667.62 1 1.36 1 2.219 0 1.01-.39 1.828-1.171 2.453-.813.646-1.909.969-3.29.969-1.234 0-2.247-.263-3.038-.79-.901-.603-1.352-1.45-1.352-2.538 0-.73.274-1.404.82-2.024.401-.453.928-.828 1.579-1.125-1.438-.656-2.157-1.565-2.157-2.726 0-.787.336-1.466 1.008-2.04.797-.676 1.841-1.015 3.133-1.015zm-.031 1.617c-.62 0-1.125.123-1.516.367-.406.25-.61.573-.61.97 0 .723.623 1.314 1.868 1.773 1.031-.662 1.88-1.347 2.547-2.055-.589-.703-1.352-1.055-2.29-1.055zm-.063 4.992c-.791.35-1.403.784-1.836 1.305-.312.375-.468.74-.468 1.094 0 .573.263.992.789 1.258.39.198.906.297 1.546.297.745 0 1.342-.138 1.79-.414.484-.303.726-.711.726-1.227 0-.448-.234-.888-.703-1.32-.417-.38-.953-.685-1.61-.914l-.234-.079z" fill="#1a73eb"/></svg>