<svg xmlns="http://www.w3.org/2000/svg" width="20" height="20"><path d="M10 0A10 10 0 0 0 0 10a10 10 0 0 0 10 10 10 10 0 0 0 10-10A10 10 0 0 0 10 0zm.027 3.855c1.245 0 2.175.336 2.79 1.008.229-.333.515-.5.859-.5.224 0 .424.068.601.203.209.151.313.373.313.664 0 .11-.016.224-.047.344l-2.508 9.899c-.114.448-.411.672-.89.672-.167 0-.336-.027-.508-.079-.443-.14-.664-.427-.664-.859 0-.094.015-.19.047-.289l1.195-3.984c-.61.614-1.38.921-2.313.921-1.03 0-1.859-.317-2.484-.953-.672-.682-1.008-1.617-1.008-2.804 0-.99.318-1.86.953-2.61A4.537 4.537 0 0 1 8.2 4.191a5.016 5.016 0 0 1 1.828-.336zM9.91 5.582c-.5 0-.943.125-1.328.375-.74.48-1.11 1.18-1.11 2.102 0 1.328.568 1.992 1.704 1.992.776 0 1.458-.362 2.047-1.086.364-.448.69-1.214.976-2.297a.758.758 0 0 0 .04-.172c-.61-.61-1.386-.914-2.329-.914z" fill="#1a73eb"/></svg>