<svg xmlns="http://www.w3.org/2000/svg" width="20" height="20"><path d="M10 0A10 10 0 0 0 0 10a10 10 0 0 0 10 10 10 10 0 0 0 10-10A10 10 0 0 0 10 0zM5.451 5.738c.863 0 1.51.234 1.936.7.159-.232.357-.346.595-.346.156 0 .294.047.416.14.145.105.217.26.217.461a.94.94 0 0 1-.031.239l-1.74 6.863c-.08.31-.285.467-.617.467-.116 0-.233-.019-.352-.055-.307-.097-.46-.296-.46-.596a.67.67 0 0 1 .032-.2l.828-2.765c-.422.427-.957.641-1.603.641-.715 0-1.29-.221-1.723-.662-.466-.473-.699-1.12-.699-1.943 0-.687.22-1.29.66-1.81.336-.398.76-.697 1.274-.9.4-.155.823-.234 1.267-.234zm8.496.434c.203 0 .356.077.461.228.047.076.07.163.07.26v2.785h2.784c.076 0 .145.014.207.043.188.083.281.247.281.489 0 .213-.077.367-.229.464a.483.483 0 0 1-.26.07H14.48v2.796a.44.44 0 0 1-.153.341.548.548 0 0 1-.379.137c-.198 0-.348-.067-.449-.201a.446.446 0 0 1-.088-.277v-2.795h-2.795a.456.456 0 0 1-.299-.104.54.54 0 0 1-.177-.428c0-.198.065-.348.199-.449a.445.445 0 0 1 .277-.086h2.795V6.66c0-.126.04-.231.12-.314a.538.538 0 0 1 .417-.174zm-8.576.764c-.347 0-.655.088-.922.261-.513.333-.77.818-.77 1.457 0 .921.395 1.381 1.182 1.381.538 0 1.012-.252 1.42-.754.253-.31.477-.84.676-1.592a.539.539 0 0 0 .027-.119c-.422-.422-.96-.634-1.613-.634z" fill="#1a73eb"/></svg>