<svg xmlns="http://www.w3.org/2000/svg" viewBox="0 0 512 512"><path fill="#ffa200" d="M443.5 143.5c0-51.5-97.2-75-187.5-75S68.5 92 68.5 143.5c0 12.9 6.6 31.6 37.5 47.3v252.7h300l-.3-252.5c31.2-15.9 37.8-34.6 37.8-47.5zM199.7 331c-10.4 0-18.8-8.4-18.8-18.8s8.4-18.8 18.8-18.8 18.8 8.4 18.8 18.8-8.4 18.8-18.8 18.8zm18.8-131.3c-10.4 0-18.8-8.4-18.8-18.8s8.4-18.8 18.8-18.8 18.8 8.4 18.8 18.8-8.5 18.8-18.8 18.8zm56.2 37.5c0-10.4 8.4-18.8 18.8-18.8s18.8 8.4 18.8 18.8-8.4 18.8-18.8 18.8-18.8-8.4-18.8-18.8zm37.5 131.3c-10.4 0-18.8-8.4-18.8-18.8s8.4-18.8 18.8-18.8 18.8 8.4 18.8 18.8-8.4 18.8-18.8 18.8z"/></svg>