<svg xmlns="http://www.w3.org/2000/svg" viewBox="0 0 512 512"><path fill="#3676ef" d="M440.6 340.4c1.7-2.8 2.9-5.9 2.9-9.4V199.8c0-6.9-3.8-13.2-9.8-16.5-6-3.3-13.4-3-19.2.8L347.2 228c-26.4-28.7-76.8-47-133.2-47-64.5 0-120.5 23.4-142.7 59.6-2.8 4.5-3.5 10-2 15 1.5 5.1 5 9.3 9.7 11.6l15.2 7.5-15.2 7.6c-4.7 2.3-8.3 6.6-9.7 11.6-1.5 5.1-.7 10.5 2 15 4.9 7.9 11.6 15.3 19.9 22.1h-4c-10.4 0-18.7 8.4-18.7 18.7v37.5c0 5 2 9.7 5.5 13.3l37.5 37.5c3.5 3.5 8.3 5.5 13.3 5.5h262.5c5 0 9.7-2 13.3-5.5l37.5-37.5c3.5-3.5 5.5-8.3 5.5-13.3v-37.5c-.1-3.4-1.3-6.5-3-9.3zm-93.5-18.9l14.6 9.5h-24.9c3.7-3.1 7.2-6.2 10.3-9.5zm-203.6-103c10.4 0 18.7 8.4 18.7 18.7 0 10.4-8.4 18.7-18.7 18.7s-18.7-8.4-18.7-18.7c0-10.3 8.4-18.7 18.7-18.7zm262.5 161L379.5 406h-247L106 379.5v-11h300v11zM218.5 68.5H256v56.2h-37.5zM143.5 106H181v56.2h-37.5zM293.5 106H331v56.2h-37.5z"/></svg>