<svg xmlns="http://www.w3.org/2000/svg" viewBox="0 0 512 512"><path d="M377.2 125.3c-13.1-23.2-37.8-38-65-38-12.7 0-24.9 3.2-35.7 9.1-14-17.2-35.2-27.8-58.1-27.8-34.9 0-64.3 24-72.6 56.3-41.9-1.5-77.4 32.8-77.4 75 0 41.4 33.6 75 75 75 3.3 0 6.5-.5 9.7-1l46.5 76.1v74.8c0 10.4 8.4 18.8 18.8 18.8h75c10.4 0 18.8-8.4 18.8-18.8v-73.4l48.3-77.3c2.6.3 5.2.7 7.9.7 41.4 0 75-33.6 75-75 .1-38.4-28.9-70.2-66.2-74.5zM237.2 331h-5.1l-34.7-56.9c13.9.4 27.8-2.6 39.8-9.6V331zm43.5 0h-6v-56.8c16.9 0 33.8-5.4 46.9-15.9 1 .8 2.2 1.4 3.2 2.2L280.7 331z"/></svg>