<svg xmlns="http://www.w3.org/2000/svg" width="50" height="50"><path d="M0 0v1.644L1.644 0zm3.432 0L0 3.432v.635l5.503 5.502L0 15.08v.632l5.503 5.506L0 26.716v.63l5.503 5.504L0 38.36v.635l4.61 4.61.893.892-.892.896L0 50h1.791l5.503-5.506-4.924-4.925-.896-.896 5.82-5.82L2.37 27.93l-.896-.896 5.82-5.82-4.924-4.928-.896-.892 5.82-5.82L2.37 4.64l-.896-.892L5.223 0zm3.582 0L3.265 3.75l5.82 5.82-5.82 5.82 5.82 5.82-5.82 5.82 5.82 5.82-5.82 5.823 4.925 4.925.895.896-.895.895L3.583 50h1.791l5.503-5.506-4.925-4.925-.895-.896 5.82-5.82-4.925-4.924-.895-.896 5.82-5.82-4.925-4.928-.895-.892 5.82-5.82-4.925-4.928-.895-.896L8.806 0zm3.583 0L6.848 3.75l5.82 5.82-5.82 5.82 5.82 5.82-5.82 5.82 5.82 5.82-5.82 5.823 4.924 4.925.896.896-.896.895L7.166 50h1.787l5.507-5.506-4.925-4.925-.896-.896 5.82-5.82-4.924-4.924-.896-.896 5.82-5.82-4.924-4.928-.896-.892 5.82-5.82-4.924-4.928-.896-.896L12.39 0zm3.583 0l-3.75 3.75 5.82 5.82-5.82 5.82 5.82 5.82-5.82 5.82 5.82 5.82-5.82 5.823 4.925 4.925.892.896-.892.895L10.745 50h1.79l5.504-5.506-4.921-4.925-.9-.896 5.82-5.82-4.92-4.924-.9-.896 5.82-5.82-4.92-4.928-.9-.892 5.82-5.82-4.92-4.928-.9-.896L15.971 0zm3.579 0l-3.75 3.75 5.82 5.82-5.82 5.82 5.82 5.82-5.82 5.82 5.82 5.82-5.82 5.823 4.929 4.925.892.896-.892.895L14.328 50h1.79l5.503-5.506-4.924-4.925-.896-.896 5.82-5.82-4.924-4.924-.896-.896 5.82-5.82-4.924-4.928-.896-.892 5.82-5.82-4.924-4.928-.896-.896L19.551 0h-1.788zm3.583 0l-3.75 3.75 5.82 5.82-5.82 5.82 5.82 5.82-5.82 5.82 5.82 5.82-5.82 5.823 4.925 4.925.896.896-.896.895L17.91 50h1.791l5.503-5.506-4.924-4.925-.896-.896 5.82-5.82-4.924-4.924-.896-.896 5.82-5.82-4.924-4.928-.896-.892 5.82-5.82-4.924-4.928-.892-.896L23.129 0h-1.791zm3.582 0l-3.749 3.75 5.82 5.82-5.82 5.82 5.82 5.82-5.82 5.82 5.82 5.82-5.82 5.823 4.925 4.925.895.896-.895.895L21.493 50h1.787l5.507-5.506-4.925-4.925-.895-.896 5.82-5.82-4.925-4.924-.895-.896 5.82-5.82-4.925-4.928-.895-.892 5.82-5.82-4.925-4.928-.895-.896L26.716 0zm3.583 0l-3.753 3.75 5.82 5.82-5.82 5.82 5.82 5.82-5.82 5.82 5.82 5.82-5.82 5.823 4.925 4.925.892.896-.892.895L25.068 50h1.791l5.503-5.506-4.92-4.925-.9-.896 5.82-5.82-4.917-4.924-.9-.896 5.82-5.82-4.92-4.928-.9-.892 5.82-5.82-4.92-4.928-.9-.896L30.3 0zm3.58 0l-3.75 3.75 5.82 5.82-5.82 5.82 5.82 5.82-5.82 5.82 5.82 5.82-5.82 5.823 4.928 4.925.892.896-.892.895L28.655 50h1.791l5.503-5.506-4.921-4.925-.896-.896 5.82-5.82-4.924-4.924-.896-.896 5.82-5.82-4.924-4.928-.896-.892 5.82-5.82-4.924-4.932-.9-.892L33.878 0zm3.582 0l-3.75 3.75 5.821 5.82-5.82 5.82 5.82 5.82-5.82 5.82 5.82 5.82-5.82 5.823 4.924 4.925.896.896-.896.895L32.237 50h1.792l5.502-5.506-4.924-4.925-.896-.896 5.82-5.82-4.924-4.924-.896-.896 5.82-5.82-4.924-4.928-.896-.892 5.82-5.82-4.924-4.928-.896-.896L37.461 0zm3.583 0l-3.75 3.75 5.82 5.82-5.82 5.82 5.82 5.82-5.82 5.82 5.82 5.82-5.82 5.823 4.925 4.925.896.896-.896.895L35.82 50h1.788l5.506-5.506-4.924-4.925-.896-.896 5.82-5.82-4.924-4.924-.896-.896 5.82-5.82-4.924-4.928-.896-.892 5.82-5.82-4.924-4.928-.896-.896L41.044 0zm3.582 0l-3.752 3.75 5.82 5.82-5.82 5.82 5.82 5.82-5.82 5.82 5.82 5.82-5.82 5.823 4.928 4.925.892.896-.892.895L39.4 50h1.79l5.503-5.506-4.92-4.925-.9-.896 5.82-5.82-4.92-4.924-.9-.896 5.82-5.82-4.92-4.928-.9-.892 5.82-5.82-4.92-4.928-.9-.896L44.626 0zm3.58 0l-3.75 3.75 5.82 5.82-5.82 5.82 5.82 5.82-5.82 5.82 5.82 5.82-5.82 5.823 4.929 4.925.892.896-.892.895L42.982 50h1.791l5.223-5.227v-.56l-4.645-4.648-.895-.892 5.54-5.544v-.552l-4.645-4.652-.895-.892 5.54-5.544v-.552l-4.645-4.652-.895-.892 5.54-5.544v-.56l-4.645-4.648-.895-.892L48.205 0zm3.582 0l-3.749 3.75 3.75 3.748V5.707l-1.063-1.062-.895-.896 1.957-1.958zm0 3.583l-.166.166.166.17v-.34zM0 5.854V7.65l1.92 1.92L0 11.493v1.791L3.711 9.57 0 5.858zm0 3.587v.26l.132-.132zm50 2.2l-3.753 3.752 3.75 3.75v-1.796l-1.063-1.058-.895-.896 1.957-1.961V11.64zm0 3.582l-.17.17.166.166v-.336zM0 17.498v1.791l1.92 1.924L0 23.13v1.792l3.711-3.712zm0 3.583v.264l.132-.132zm50 2.2l-3.753 3.752 3.75 3.75v-1.796l-1.063-1.062-.895-.896 1.957-1.961V23.28zm0 3.582l-.17.17.166.167v-.337zM0 29.138v1.792l1.92 1.92L0 34.773v1.792l3.711-3.715zm0 3.583v.265l.132-.136zm50 2.2l-3.753 3.752 3.75 3.75V40.63l-1.063-1.062-.895-.896 1.957-1.957V34.92zm0 3.586l-.17.166.166.167v-.333zM0 40.78v1.79l1.028 1.029.892.896-.892.895L0 46.417v1.788l3.711-3.711zm0 3.582v.265l.132-.132zm50 2.204l-3.435 3.431h1.791l1.64-1.64v-1.791z" fill="#ffc8c2"/></svg>