<svg xmlns="http://www.w3.org/2000/svg" width="50" height="50"><path d="M50 0h-1.644l1.64 1.644zm0 3.432L46.56 0h-.63l-5.503 5.503L34.921 0h-.632l-5.502 5.503L23.28 0h-.63l-5.503 5.503L11.64 0h-.635l-4.61 4.61-.892.893-.896-.892L0 0v1.791l5.503 5.503L10.43 2.37l.892-.896 5.82 5.82L22.07 2.37l.896-.896 5.82 5.82L33.71 2.37l.896-.896 5.82 5.82 4.924-4.924.896-.896 3.75 3.749zm0 3.582l-3.753-3.749-5.82 5.82-5.82-5.82-5.82 5.82-5.82-5.82-5.82 5.82-5.82-5.82L6.398 8.19l-.895.895-.896-.895L0 3.583v1.791l5.503 5.503 4.928-4.925.892-.895 5.82 5.82 4.928-4.925.9-.895 5.82 5.82 4.92-4.925.896-.895 5.82 5.82 4.924-4.925.896-.895 3.75 3.749zm0 3.583l-3.753-3.749-5.82 5.82-5.82-5.82-5.82 5.82-5.82-5.82-5.82 5.82-5.82-5.82-4.929 4.924-.895.896-.896-.896L0 7.166v1.787l5.503 5.507 4.928-4.925.892-.896 5.82 5.82 4.928-4.924.9-.896 5.82 5.82 4.92-4.924.896-.896 5.82 5.82 4.924-4.924.896-.896 3.75 3.75zm0 3.583l-3.753-3.75-5.82 5.82-5.82-5.82-5.82 5.82-5.82-5.82-5.82 5.82-5.82-5.82-4.929 4.925-.895.892-.896-.892L0 10.745v1.79l5.503 5.504 4.928-4.921.892-.9 5.82 5.82 4.928-4.92.9-.9 5.82 5.82 4.92-4.92.896-.9 5.82 5.82 4.924-4.92.896-.9 3.75 3.753zm0 3.579l-3.753-3.75-5.82 5.82-5.82-5.82-5.82 5.82-5.82-5.82-5.82 5.82-5.82-5.82-4.929 4.929-.895.892-.896-.892L0 14.324v1.79l5.503 5.504 4.928-4.921.892-.896 5.82 5.82 4.928-4.924.9-.896 5.82 5.82 4.92-4.924.896-.896 5.82 5.82 4.924-4.924.896-.896 3.75 3.75zm0 3.583l-3.753-3.75-5.82 5.82-5.82-5.82-5.82 5.82-5.82-5.82-5.82 5.82-5.82-5.82-4.929 4.925-.895.896-.896-.896L0 17.914v1.791l5.503 5.503 4.928-4.928.892-.896 5.82 5.82 4.928-4.924.9-.896 5.82 5.82 4.92-4.924.896-.896 5.82 5.82 4.924-4.924.896-.896 3.75 3.749zm0 3.582l-3.753-3.749-5.82 5.82-5.82-5.82-5.82 5.82-5.82-5.82-5.82 5.82-5.82-5.82L6.398 26.1l-.895.895-.896-.895L0 21.493v1.787l5.503 5.507 4.928-4.925.892-.895 5.82 5.82 4.928-4.925.9-.895 5.82 5.82 4.92-4.925.896-.895 5.82 5.82 4.924-4.925.896-.895 3.75 3.749zm0 3.583l-3.753-3.749-5.82 5.82-5.82-5.82-5.82 5.82-5.82-5.82-5.82 5.82-5.82-5.82-4.929 4.925-.895.891-.896-.891L0 25.072v1.791l5.503 5.503 4.928-4.92.892-.9 5.82 5.82 4.928-4.92.9-.9 5.82 5.82 4.92-4.92.896-.9 5.82 5.82 4.924-4.92.896-.9 3.75 3.753zm0 3.58l-3.753-3.75-5.82 5.82-5.82-5.82-5.82 5.82-5.82-5.82-5.82 5.82-5.82-5.82-4.929 4.928-.895.892-.896-.892L0 28.655v1.791l5.503 5.503 4.928-4.921.892-.896 5.82 5.82 4.928-4.924.9-.896 5.82 5.82 4.92-4.924.896-.896 5.82 5.82 4.924-4.924.896-.896 3.75 3.75zm0 3.582l-3.753-3.75-5.82 5.821-5.82-5.82-5.82 5.82-5.82-5.82-5.82 5.82-5.82-5.82-4.929 4.924-.895.896-.896-.896L0 32.237v1.792l5.503 5.502 4.928-4.924.892-.896 5.82 5.82 4.928-4.924.9-.896 5.82 5.82 4.92-4.924.896-.896 5.82 5.82 4.924-4.924.896-.896 3.75 3.75zm0 3.583l-3.753-3.75-5.82 5.82-5.82-5.82-5.82 5.82-5.82-5.82-5.82 5.82-5.82-5.82-4.929 4.925-.895.896-.896-.896L0 35.82v1.788l5.503 5.506 4.928-4.924.892-.896 5.82 5.82 4.924-4.924.9-.896 5.82 5.82 4.924-4.924.896-.896 5.82 5.82 4.924-4.924.896-.896 3.75 3.75zm0 3.582l-3.753-3.752-5.82 5.82-5.82-5.82-5.82 5.82-5.82-5.82-5.82 5.82-5.82-5.82-4.929 4.928-.895.892-.896-.892L0 39.4v1.79l5.503 5.503 4.928-4.92.892-.9 5.82 5.82 4.924-4.92.9-.9 5.82 5.82 4.924-4.92.896-.9 5.82 5.82 4.924-4.92.896-.9 3.75 3.753zm0 3.58l-3.753-3.75-5.82 5.82-5.82-5.82-5.82 5.82-5.82-5.82-5.82 5.82-5.82-5.82-4.929 4.929-.895.892-.896-.892L0 42.982v1.791l5.223 5.223h.56l4.648-4.645.892-.895 5.544 5.54h.56l4.64-4.645.9-.895 5.54 5.54h.556l4.648-4.645.896-.895 5.54 5.54h.56l4.644-4.645.892-.895 3.75 3.749zm0 3.582l-3.753-3.749-3.749 3.75h1.791l1.062-1.063.896-.895 1.958 1.957zm-3.587 0l-.166-.166-.166.166zM44.143 0H42.35l-1.924 1.92L38.507 0h-1.795l3.715 3.711zm-3.584 0h-.264l.132.132zm-2.203 50l-3.749-3.753-3.753 3.75h1.795l1.058-1.063.9-.895 1.958 1.957zm-3.583 0l-.166-.17-.17.166zM32.498 0h-1.791l-1.92 1.924L26.863 0h-1.791l3.715 3.711zm-3.583 0h-.26l.132.132zM26.72 50l-3.75-3.753-3.752 3.75h1.791l1.062-1.059.9-.9 1.957 1.958zm-3.583 0l-.166-.17-.17.166zM20.862 0H19.07l-1.92 1.924L15.223 0h-1.791l3.715 3.711zm-3.583 0h-.26l.131.132zm-2.2 50l-3.752-3.753-3.75 3.75H9.37l1.066-1.059.892-.9 1.961 1.958zm-3.582 0l-.17-.17-.167.166zM9.217 0h-1.79L6.397 1.028l-.895.892-.892-.892L3.579 0H1.791l3.712 3.711zM5.636 0H5.37l.133.132zM3.432 50L0 46.56v1.792l1.644 1.64z" fill="#ff9d80"/></svg>