<?xml version="1.0" encoding="UTF-8" standalone="no"?>
<!-- Created with Inkscape (http://www.inkscape.org/) -->

<svg
   xmlns:dc="http://purl.org/dc/elements/1.1/"
   xmlns:cc="http://creativecommons.org/ns#"
   xmlns:rdf="http://www.w3.org/1999/02/22-rdf-syntax-ns#"
   xmlns:svg="http://www.w3.org/2000/svg"
   xmlns="http://www.w3.org/2000/svg"
   xmlns:sodipodi="http://sodipodi.sourceforge.net/DTD/sodipodi-0.dtd"
   xmlns:inkscape="http://www.inkscape.org/namespaces/inkscape"
   width="50"
   height="50"
   viewBox="0 0 13.229166 13.229167"
   version="1.1"
   id="svg8"
   inkscape:version="0.92.3 (2405546, 2018-03-11)"
   sodipodi:docname="06.svg">
  <defs
     id="defs2" />
  <sodipodi:namedview
     id="base"
     pagecolor="#ffffff"
     bordercolor="#666666"
     borderopacity="1.0"
     inkscape:pageopacity="0.0"
     inkscape:pageshadow="2"
     inkscape:zoom="5.6119998"
     inkscape:cx="-31.493747"
     inkscape:cy="-15.461989"
     inkscape:document-units="mm"
     inkscape:current-layer="layer1"
     showgrid="false"
     units="px"
     inkscape:window-width="1416"
     inkscape:window-height="1048"
     inkscape:window-x="495"
     inkscape:window-y="0"
     inkscape:window-maximized="0" />
  <metadata
     id="metadata5">
    <rdf:RDF>
      <cc:Work
         rdf:about="">
        <dc:format>image/svg+xml</dc:format>
        <dc:type
           rdf:resource="http://purl.org/dc/dcmitype/StillImage" />
        <dc:title></dc:title>
      </cc:Work>
    </rdf:RDF>
  </metadata>
  <g
     inkscape:label="Layer 1"
     inkscape:groupmode="layer"
     id="layer1"
     transform="translate(0,-283.77082)">
    <path
       style="opacity:1;fill:#dad4eb;fill-opacity:1;fill-rule:nonzero;stroke:none;stroke-width:0.85664296;stroke-linecap:round;stroke-linejoin:round;stroke-miterlimit:4;stroke-dasharray:none;stroke-dashoffset:30;stroke-opacity:1;paint-order:stroke fill markers"
       d="m 0,296.99999 h 13.229167 v -0.52917 H 0 Z m 0,-0.74621 h 13.229167 v -0.84129 H 0 Z m 0,-1.05833 h 13.229167 v -0.8413 H 0 Z m 0,-1.05834 h 13.229167 v -0.84129 H 0 Z m 0,-1.05833 h 13.229167 v -0.84129 H 0 Z m 0,-1.05833 h 13.229167 v -0.8413 H 0 Z m 0,-1.05834 h 13.229167 v -0.84129 H 0 Z m 0,-1.05833 h 13.229167 v -0.84129 H 0 Z m 0,-1.05833 h 13.229167 v -0.8413 H 0 Z m 0,-1.05834 h 13.229167 v -0.84129 H 0 Z m 0,-1.05833 h 13.229167 v -0.84129 H 0 Z m 0,-1.05833 h 13.229167 v -0.8413 H 0 Z m 0,-1.05834 h 13.229167 v -0.84129 H 0 Z"
       id="rect815"
       inkscape:connector-curvature="0" />
  </g>
</svg>
