<?xml version="1.0" encoding="UTF-8" standalone="no"?>
<!-- Created with Inkscape (http://www.inkscape.org/) -->

<svg
   xmlns:dc="http://purl.org/dc/elements/1.1/"
   xmlns:cc="http://creativecommons.org/ns#"
   xmlns:rdf="http://www.w3.org/1999/02/22-rdf-syntax-ns#"
   xmlns:svg="http://www.w3.org/2000/svg"
   xmlns="http://www.w3.org/2000/svg"
   xmlns:sodipodi="http://sodipodi.sourceforge.net/DTD/sodipodi-0.dtd"
   xmlns:inkscape="http://www.inkscape.org/namespaces/inkscape"
   width="50"
   height="50"
   viewBox="0 0 13.229166 13.229167"
   version="1.1"
   id="svg1400"
   inkscape:version="0.92.3 (2405546, 2018-03-11)"
   sodipodi:docname="08.svg">
  <defs
     id="defs1394" />
  <sodipodi:namedview
     id="base"
     pagecolor="#ffffff"
     bordercolor="#666666"
     borderopacity="1.0"
     inkscape:pageopacity="0.0"
     inkscape:pageshadow="2"
     inkscape:zoom="4.7140625"
     inkscape:cx="13.348387"
     inkscape:cy="-15.833784"
     inkscape:document-units="mm"
     inkscape:current-layer="layer1"
     showgrid="false"
     units="px"
     inkscape:window-width="1416"
     inkscape:window-height="1048"
     inkscape:window-x="495"
     inkscape:window-y="0"
     inkscape:window-maximized="0" />
  <metadata
     id="metadata1397">
    <rdf:RDF>
      <cc:Work
         rdf:about="">
        <dc:format>image/svg+xml</dc:format>
        <dc:type
           rdf:resource="http://purl.org/dc/dcmitype/StillImage" />
        <dc:title></dc:title>
      </cc:Work>
    </rdf:RDF>
  </metadata>
  <g
     inkscape:label="Layer 1"
     inkscape:groupmode="layer"
     id="layer1"
     transform="translate(0,-283.77082)">
    <path
       style="opacity:1;fill:#a4cec0;fill-opacity:1;fill-rule:nonzero;stroke:none;stroke-width:2.20000005;stroke-linecap:round;stroke-linejoin:round;stroke-miterlimit:4;stroke-dasharray:none;stroke-dashoffset:30;stroke-opacity:1;paint-order:stroke fill markers"
       d="M 0.50390625 0 L 3.6835938 3.1835938 L 6.8671875 0 L 0.50390625 0 z M 7.5742188 0 L 10.755859 3.1816406 L 13.9375 0 L 7.5742188 0 z M 14.644531 0 L 17.828125 3.1796875 L 21.007812 0 L 14.644531 0 z M 21.714844 0 L 24.898438 3.1816406 L 28.080078 0 L 21.714844 0 z M 28.787109 0 L 31.96875 3.1816406 L 35.150391 0 L 28.787109 0 z M 35.857422 0 L 39.039062 3.1835938 L 42.222656 0 L 35.857422 0 z M 42.929688 0 L 46.109375 3.1835938 L 49.292969 0 L 42.929688 0 z M 21.363281 0.3515625 L 18.179688 3.5351562 L 21.363281 6.7167969 L 24.544922 3.5351562 L 21.363281 0.3515625 z M 7.2207031 0.35351562 L 4.0390625 3.5351562 L 7.21875 6.71875 L 10.402344 3.5351562 L 7.2207031 0.35351562 z M 14.291016 0.35351562 L 11.109375 3.5351562 L 14.291016 6.7167969 L 17.472656 3.5351562 L 14.291016 0.35351562 z M 28.433594 0.35351562 L 25.251953 3.5351562 L 28.433594 6.7167969 L 31.615234 3.5351562 L 28.433594 0.35351562 z M 35.503906 0.35351562 L 32.322266 3.5351562 L 35.503906 6.71875 L 38.6875 3.5351562 L 35.503906 0.35351562 z M 49.646484 0.35351562 L 46.464844 3.5351562 L 49.644531 6.71875 L 50 6.3632812 L 50 0.70703125 L 49.646484 0.35351562 z M 0.1484375 0.35546875 L 0 0.50390625 L 0 6.5703125 L 0.1484375 6.71875 L 3.3320312 3.5351562 L 0.1484375 0.35546875 z M 42.574219 0.35546875 L 39.394531 3.5351562 L 42.574219 6.71875 L 45.757812 3.5351562 L 42.574219 0.35546875 z M 10.755859 3.8886719 L 7.5742188 7.0703125 L 10.753906 10.253906 L 13.9375 7.0703125 L 10.755859 3.8886719 z M 17.826172 3.8886719 L 14.644531 7.0703125 L 17.826172 10.253906 L 21.009766 7.0703125 L 17.826172 3.8886719 z M 24.898438 3.8886719 L 21.716797 7.0703125 L 24.898438 10.251953 L 28.080078 7.0703125 L 24.898438 3.8886719 z M 31.96875 3.8886719 L 28.787109 7.0703125 L 31.96875 10.253906 L 35.152344 7.0703125 L 31.96875 3.8886719 z M 3.6835938 3.890625 L 0.50390625 7.0703125 L 3.6835938 10.253906 L 6.8671875 7.0703125 L 3.6835938 3.890625 z M 39.039062 3.890625 L 35.859375 7.0703125 L 39.039062 10.253906 L 42.222656 7.0703125 L 39.039062 3.890625 z M 46.109375 3.890625 L 42.929688 7.0703125 L 46.109375 10.253906 L 49.292969 7.0703125 L 46.109375 3.890625 z M 14.291016 7.4238281 L 11.109375 10.605469 L 14.291016 13.789062 L 17.472656 10.607422 L 14.291016 7.4238281 z M 21.363281 7.4238281 L 18.179688 10.607422 L 21.361328 13.789062 L 24.544922 10.605469 L 21.363281 7.4238281 z M 28.433594 7.4238281 L 25.251953 10.605469 L 28.433594 13.789062 L 31.617188 10.605469 L 28.433594 7.4238281 z M 0.1484375 7.4257812 L 0 7.5742188 L 0 13.640625 L 0.1484375 13.789062 L 3.3320312 10.605469 L 0.1484375 7.4257812 z M 7.21875 7.4257812 L 4.0390625 10.605469 L 7.21875 13.789062 L 10.402344 10.605469 L 7.21875 7.4257812 z M 35.503906 7.4257812 L 32.324219 10.605469 L 35.503906 13.789062 L 38.6875 10.605469 L 35.503906 7.4257812 z M 42.574219 7.4257812 L 39.394531 10.605469 L 42.574219 13.789062 L 45.757812 10.605469 L 42.574219 7.4257812 z M 49.644531 7.4257812 L 46.464844 10.605469 L 49.644531 13.789062 L 50 13.433594 L 50 7.78125 L 49.644531 7.4257812 z M 24.898438 10.958984 L 21.714844 14.142578 L 24.898438 17.324219 L 28.080078 14.142578 L 24.898438 10.958984 z M 3.6835938 10.960938 L 0.50390625 14.140625 L 3.6835938 17.324219 L 6.8671875 14.140625 L 3.6835938 10.960938 z M 10.753906 10.960938 L 7.5742188 14.140625 L 10.755859 17.324219 L 13.9375 14.142578 L 10.753906 10.960938 z M 17.826172 10.960938 L 14.644531 14.142578 L 17.826172 17.324219 L 21.007812 14.142578 L 17.826172 10.960938 z M 31.96875 10.960938 L 28.789062 14.140625 L 31.96875 17.324219 L 35.152344 14.140625 L 31.96875 10.960938 z M 39.039062 10.960938 L 35.859375 14.140625 L 39.039062 17.324219 L 42.222656 14.140625 L 39.039062 10.960938 z M 46.109375 10.960938 L 42.929688 14.140625 L 46.109375 17.324219 L 49.292969 14.140625 L 46.109375 10.960938 z M 0.1484375 14.496094 L 0 14.644531 L 0 20.710938 L 0.1484375 20.859375 L 3.3320312 17.675781 L 0.1484375 14.496094 z M 7.21875 14.496094 L 4.0390625 17.675781 L 7.2207031 20.859375 L 10.402344 17.677734 L 7.21875 14.496094 z M 14.291016 14.496094 L 11.109375 17.677734 L 14.291016 20.859375 L 17.472656 17.677734 L 14.291016 14.496094 z M 21.361328 14.496094 L 18.179688 17.677734 L 21.363281 20.859375 L 24.544922 17.677734 L 21.361328 14.496094 z M 28.433594 14.496094 L 25.251953 17.677734 L 28.433594 20.859375 L 31.615234 17.677734 L 28.433594 14.496094 z M 35.503906 14.496094 L 32.324219 17.675781 L 35.503906 20.859375 L 38.6875 17.675781 L 35.503906 14.496094 z M 42.574219 14.496094 L 39.394531 17.675781 L 42.574219 20.859375 L 45.757812 17.675781 L 42.574219 14.496094 z M 49.644531 14.496094 L 46.464844 17.675781 L 49.646484 20.859375 L 50 20.505859 L 50 14.851562 L 49.644531 14.496094 z M 3.6835938 18.03125 L 0.50390625 21.210938 L 3.6855469 24.394531 L 6.8671875 21.212891 L 3.6835938 18.03125 z M 10.755859 18.03125 L 7.5742188 21.212891 L 10.755859 24.394531 L 13.9375 21.212891 L 10.755859 18.03125 z M 17.826172 18.03125 L 14.644531 21.212891 L 17.828125 24.394531 L 21.007812 21.214844 L 17.826172 18.03125 z M 24.898438 18.03125 L 21.714844 21.214844 L 24.898438 24.394531 L 28.080078 21.212891 L 24.898438 18.03125 z M 31.96875 18.03125 L 28.787109 21.212891 L 31.96875 24.394531 L 35.150391 21.212891 L 31.96875 18.03125 z M 39.039062 18.03125 L 35.859375 21.210938 L 39.039062 24.394531 L 42.222656 21.210938 L 39.039062 18.03125 z M 46.109375 18.03125 L 42.929688 21.210938 L 46.111328 24.394531 L 49.292969 21.212891 L 46.109375 18.03125 z M 0.1484375 21.566406 L 0 21.714844 L 0 27.779297 L 0.15039062 27.929688 L 3.3320312 24.748047 L 0.1484375 21.566406 z M 7.2207031 21.566406 L 4.0390625 24.748047 L 7.2207031 27.929688 L 10.402344 24.748047 L 7.2207031 21.566406 z M 14.291016 21.566406 L 11.109375 24.748047 L 14.292969 27.929688 L 17.472656 24.75 L 14.291016 21.566406 z M 21.363281 21.566406 L 18.179688 24.75 L 21.363281 27.929688 L 24.542969 24.75 L 21.363281 21.566406 z M 28.433594 21.566406 L 25.25 24.75 L 28.433594 27.929688 L 31.615234 24.748047 L 28.433594 21.566406 z M 35.503906 21.566406 L 32.322266 24.748047 L 35.503906 27.929688 L 38.685547 24.748047 L 35.503906 21.566406 z M 42.574219 21.566406 L 39.394531 24.746094 L 42.576172 27.929688 L 45.757812 24.748047 L 42.574219 21.566406 z M 49.646484 21.566406 L 46.464844 24.748047 L 49.648438 27.929688 L 50 27.578125 L 50 21.919922 L 49.646484 21.566406 z M 3.6855469 25.101562 L 0.50390625 28.283203 L 3.6855469 31.464844 L 6.8671875 28.283203 L 3.6855469 25.101562 z M 10.755859 25.101562 L 7.5742188 28.283203 L 10.757812 31.464844 L 13.9375 28.285156 L 10.755859 25.101562 z M 17.828125 25.101562 L 14.644531 28.285156 L 17.828125 31.464844 L 21.007812 28.285156 L 17.828125 25.101562 z M 24.898438 25.101562 L 21.714844 28.285156 L 24.898438 31.464844 L 28.078125 28.285156 L 24.898438 25.101562 z M 31.96875 25.101562 L 28.785156 28.285156 L 31.96875 31.464844 L 35.150391 28.283203 L 31.96875 25.101562 z M 39.039062 25.101562 L 35.857422 28.283203 L 39.039062 31.466797 L 42.222656 28.283203 L 39.039062 25.101562 z M 46.111328 25.101562 L 42.929688 28.283203 L 46.113281 31.464844 L 49.292969 28.285156 L 46.111328 25.101562 z M 0.15039062 28.636719 L 0 28.787109 L 0 34.853516 L 0.1484375 35.001953 L 3.3320312 31.818359 L 0.15039062 28.636719 z M 7.2207031 28.636719 L 4.0390625 31.818359 L 7.2207031 35.001953 L 10.402344 31.820312 L 7.2207031 28.636719 z M 14.292969 28.636719 L 11.109375 31.820312 L 14.292969 35 L 17.472656 31.820312 L 14.292969 28.636719 z M 21.363281 28.636719 L 18.179688 31.820312 L 21.363281 35 L 24.542969 31.820312 L 21.363281 28.636719 z M 28.433594 28.636719 L 25.25 31.820312 L 28.433594 35 L 31.613281 31.820312 L 28.433594 28.636719 z M 35.503906 28.636719 L 32.320312 31.820312 L 35.503906 35.001953 L 38.685547 31.820312 L 35.503906 28.636719 z M 42.576172 28.636719 L 39.392578 31.820312 L 42.576172 35.001953 L 45.757812 31.820312 L 42.576172 28.636719 z M 49.648438 28.636719 L 46.464844 31.820312 L 49.648438 35 L 50 34.648438 L 50 28.988281 L 49.648438 28.636719 z M 3.6855469 32.171875 L 0.50195312 35.355469 L 3.6835938 38.539062 L 6.8671875 35.355469 L 3.6855469 32.171875 z M 10.757812 32.171875 L 7.5742188 35.355469 L 10.755859 38.537109 L 13.9375 35.355469 L 10.757812 32.171875 z M 17.828125 32.171875 L 14.644531 35.355469 L 17.828125 38.535156 L 21.007812 35.355469 L 17.828125 32.171875 z M 24.898438 32.171875 L 21.714844 35.355469 L 24.898438 38.535156 L 28.078125 35.355469 L 24.898438 32.171875 z M 31.96875 32.171875 L 28.785156 35.355469 L 31.96875 38.537109 L 35.150391 35.355469 L 31.96875 32.171875 z M 39.039062 32.173828 L 35.857422 35.355469 L 39.039062 38.539062 L 42.222656 35.355469 L 39.039062 32.173828 z M 46.111328 32.173828 L 42.929688 35.355469 L 46.111328 38.537109 L 49.292969 35.355469 L 46.111328 32.173828 z M 14.292969 35.707031 L 11.109375 38.890625 L 14.291016 42.072266 L 17.472656 38.890625 L 14.292969 35.707031 z M 21.363281 35.707031 L 18.179688 38.890625 L 21.363281 42.070312 L 24.542969 38.890625 L 21.363281 35.707031 z M 28.433594 35.707031 L 25.25 38.890625 L 28.433594 42.072266 L 31.615234 38.890625 L 28.433594 35.707031 z M 0.1484375 35.708984 L 0 35.857422 L 0 41.925781 L 0.1484375 42.074219 L 3.3320312 38.890625 L 0.1484375 35.708984 z M 7.2207031 35.708984 L 4.0390625 38.890625 L 7.21875 42.074219 L 10.402344 38.890625 L 7.2207031 35.708984 z M 35.503906 35.708984 L 32.322266 38.890625 L 35.503906 42.074219 L 38.6875 38.890625 L 35.503906 35.708984 z M 42.576172 35.708984 L 39.394531 38.890625 L 42.574219 42.074219 L 45.757812 38.890625 L 42.576172 35.708984 z M 49.646484 35.708984 L 46.464844 38.890625 L 49.646484 42.072266 L 50 41.71875 L 50 36.0625 L 49.646484 35.708984 z M 17.828125 39.242188 L 14.644531 42.425781 L 17.826172 45.607422 L 21.007812 42.425781 L 17.828125 39.242188 z M 24.898438 39.242188 L 21.714844 42.425781 L 24.898438 45.607422 L 28.080078 42.425781 L 24.898438 39.242188 z M 10.755859 39.244141 L 7.5742188 42.425781 L 10.753906 45.609375 L 13.9375 42.425781 L 10.755859 39.244141 z M 31.96875 39.244141 L 28.787109 42.425781 L 31.96875 45.609375 L 35.152344 42.425781 L 31.96875 39.244141 z M 46.111328 39.244141 L 42.929688 42.425781 L 46.109375 45.609375 L 49.292969 42.425781 L 46.111328 39.244141 z M 3.6835938 39.246094 L 0.50390625 42.425781 L 3.6835938 45.609375 L 6.8671875 42.425781 L 3.6835938 39.246094 z M 39.039062 39.246094 L 35.859375 42.425781 L 39.039062 45.609375 L 42.222656 42.425781 L 39.039062 39.246094 z M 21.363281 42.777344 L 18.179688 45.960938 L 21.363281 49.142578 L 24.544922 45.960938 L 21.363281 42.777344 z M 14.291016 42.779297 L 11.109375 45.960938 L 14.289062 49.144531 L 17.472656 45.960938 L 14.291016 42.779297 z M 28.433594 42.779297 L 25.251953 45.960938 L 28.433594 49.144531 L 31.617188 45.960938 L 28.433594 42.779297 z M 49.646484 42.779297 L 46.464844 45.960938 L 49.644531 49.144531 L 50 48.789062 L 50 43.132812 L 49.646484 42.779297 z M 0.1484375 42.78125 L 0 42.929688 L 0 48.996094 L 0.1484375 49.144531 L 3.3320312 45.960938 L 0.1484375 42.78125 z M 7.21875 42.78125 L 4.0390625 45.960938 L 7.21875 49.144531 L 10.402344 45.960938 L 7.21875 42.78125 z M 35.503906 42.78125 L 32.324219 45.960938 L 35.503906 49.144531 L 38.6875 45.960938 L 35.503906 42.78125 z M 42.574219 42.78125 L 39.394531 45.960938 L 42.574219 49.144531 L 45.757812 45.960938 L 42.574219 42.78125 z M 17.826172 46.314453 L 14.644531 49.496094 L 15.148438 50 L 20.505859 50 L 21.009766 49.496094 L 17.826172 46.314453 z M 24.898438 46.314453 L 21.716797 49.496094 L 22.220703 50 L 27.578125 50 L 28.082031 49.496094 L 24.898438 46.314453 z M 3.6835938 46.316406 L 0.50390625 49.496094 L 1.0078125 50 L 6.3632812 50 L 6.8671875 49.496094 L 3.6835938 46.316406 z M 10.753906 46.316406 L 7.5742188 49.496094 L 8.078125 50 L 13.433594 50 L 13.9375 49.496094 L 10.753906 46.316406 z M 31.96875 46.316406 L 28.789062 49.496094 L 29.292969 50 L 34.648438 50 L 35.152344 49.496094 L 31.96875 46.316406 z M 39.039062 46.316406 L 35.859375 49.496094 L 36.363281 50 L 41.71875 50 L 42.222656 49.496094 L 39.039062 46.316406 z M 46.109375 46.316406 L 42.929688 49.496094 L 43.433594 50 L 48.789062 50 L 49.292969 49.496094 L 46.109375 46.316406 z M 21.363281 49.849609 L 21.212891 50 L 21.513672 50 L 21.363281 49.849609 z M 0.1484375 49.851562 L 0 50 L 0.296875 50 L 0.1484375 49.851562 z M 7.21875 49.851562 L 7.0703125 50 L 7.3671875 50 L 7.21875 49.851562 z M 14.289062 49.851562 L 14.140625 50 L 14.4375 50 L 14.289062 49.851562 z M 28.433594 49.851562 L 28.285156 50 L 28.582031 50 L 28.433594 49.851562 z M 35.503906 49.851562 L 35.355469 50 L 35.652344 50 L 35.503906 49.851562 z M 42.574219 49.851562 L 42.425781 50 L 42.722656 50 L 42.574219 49.851562 z M 49.644531 49.851562 L 49.496094 50 L 49.792969 50 L 49.644531 49.851562 z "
       transform="matrix(0.26458333,0,0,0.26458333,0,283.77082)"
       id="rect1945" />
  </g>
</svg>
