<svg xmlns="http://www.w3.org/2000/svg" width="35" height="35"><g stroke-width="2"><path d="M10.164 2.184l-.573.29C3.9 5.362 0 11.27 0 18.086c0 5.784 2.809 10.913 7.135 14.098l.443.327V11.116zm14.991.162l-.123.259L17.254 19l-2.887 8.415h5.595l7-15.14v20.54l.437-.3C31.989 29.362 35 24.072 35 18.086c0-6.817-3.9-12.722-9.589-15.611zm.24.791c5.368 2.844 9.048 8.45 9.048 14.948 0 5.592-2.748 10.503-6.923 13.588V11.006l-.532-.117-7.383 15.968h-4.457l2.622-7.646zm-16.161.258L7.02 11.037V31.32C3.108 28.217.557 23.47.557 18.085c0-6.334 3.528-11.783 8.677-14.69z" fill-opacity=".5"/><path d="M10.164 2.184l-2.586 8.932 6.789 16.3 2.887-8.414z" fill-opacity=".5"/></g></svg>