<svg xmlns="http://www.w3.org/2000/svg" viewBox="0 0 1000 1000"><path fill="#fff" d="M471 574.5c-23.9 31.9-48.9 52.6-63.5 63-37.3 26.2-86.8 49.2-133.2 45.9-17.1-1.2-56.7-8.5-82.7-35-21.5-21.9-25.1-49.8-20.5-72 3.4-16.3 15.1-29.2 26-37.9 19.1-10.1 45.3-17.7 81.8-19.2 71.5-3.1 138.5 27.5 192.1 55.2m29 354.3C263.6 928.8 71.3 736.4 71.3 500S263.6 71.3 500 71.3 928.8 263.6 928.8 500c0 60.4-12.7 117.8-35.3 169.9v-2.6S703.7 592.2 577 546.9c47-82.6 62-166.4 62-166.4H489.3v-59.8h187.1v-30H489.3v-74.8h-67.4c-13.4 0-14.9 6.7-14.9 14.9v59.9H234.8v30H407v59.8H264.7v30h276.9c-7.6 28.1-19.5 70.1-37.9 109.4-66.6-23.6-145.7-43.5-191.2-43.8-30.7-.2-90 2.2-134.4 45.6-20.2 19.7-28 41-31.7 59.3-1.6 7.5-1.8 14.8-1.5 21.7-.2 4.1-.1 8 .2 11.8.4 5.7 1.5 11.1 3 16.4 3.1 10.8 7 17.6 7 17.6s-.4-1-1.1-2.8c6.9 13.7 16.4 25.1 24.6 34.1 16.2 17.7 44 35.3 81.6 43.1 38 7.8 74.4 3.2 114.8-8.8C439.3 695 496.2 651 534.6 607.2c86.3 42.1 229.8 113.4 306.6 151.5-78.4 103-202 170.1-341.2 170.1M500 10C229.8 10 10 229.8 10 500s219.8 490 490 490 490-219.8 490-490S770.2 10 500 10"/></svg>