<svg xmlns="http://www.w3.org/2000/svg" xmlns:xlink="http://www.w3.org/1999/xlink" width="50" height="50"><path d="M.5.5v4.002h4.002V.5zm5 0v4.002h4.003V.5zm5 0v4.002H14.5V.5zm5 0v4.002h4V.5zm5 0v4.002h4V.5zm5 0v4.002h4V.5zm5 0v4.002h4V.5zm5.001 0v4.002H39.5V.5zm5 0v4.002H44.5V.5zm5 0v4.002H49.5V.5zM.5 5.5v4.003h4.002V5.5zm5 0v4.003h4.003V5.5zm5 0v4.003H14.5V5.5zm5 0v4.003h4V5.5zm5 0v4.003h4V5.5zm5 0v4.003h4V5.5zm5 0v4.003h4V5.5zm5.001 0v4.003H39.5V5.5zm5 0v4.003H44.5V5.5zm5 0v4.003H49.5V5.5zM.5 10.5V14.5h4.002V10.5zm5 0V14.5h4.003V10.5zm5 0V14.5H14.5V10.5zm5 0V14.5h4V10.5zm5 0V14.5h4V10.5zm5 0V14.5h4V10.5zm5 0V14.5h4V10.5zm5.001 0V14.5H39.5V10.5zm5 0V14.5H44.5V10.5zm5 0V14.5H49.5V10.5zM.5 15.5v4h4.002v-4zm5 0v4h4.003v-4zm5 0v4H14.5v-4zm5 0v4h4v-4zm5 0v4h4v-4zm5 0v4h4v-4zm5 0v4h4v-4zm5.001 0v4H39.5v-4zm5 0v4H44.5v-4zm5 0v4H49.5v-4zM.5 20.5v4h4.002v-4zm5 0v4h4.003v-4zm5 0v4H14.5v-4zm5 0v4h4v-4zm5 0v4h4v-4zm5 0v4h4v-4zm5 0v4h4v-4zm5.001 0v4H39.5v-4zm5 0v4H44.5v-4zm5 0v4H49.5v-4zM.5 25.5v4h4.002v-4zm5 0v4h4.003v-4zm5 0v4H14.5v-4zm5 0v4h4v-4zm5 0v4h4v-4zm5 0v4h4v-4zm5 0v4h4v-4zm5.001 0v4H39.5v-4zm5 0v4H44.5v-4zm5 0v4H49.5v-4zM.5 30.5v4h4.002v-4zm5 0v4h4.003v-4zm5 0v4H14.5v-4zm5 0v4h4v-4zm5 0v4h4v-4zm5 0v4h4v-4zm5 0v4h4v-4zm5.001 0v4H39.5v-4zm5 0v4H44.5v-4zm5 0v4H49.5v-4zM.5 35.502V39.5h4.002V35.5zm5 0V39.5h4.003V35.5zm5 0V39.5H14.5V35.5zm5 0V39.5h4V35.5zm5 0V39.5h4V35.5zm5 0V39.5h4V35.5zm5 0V39.5h4V35.5zm5.001 0V39.5H39.5V35.5zm5 0V39.5H44.5V35.5zm5 0V39.5H49.5V35.5zm-45.001 5V44.5h4.002V40.5zm5 0V44.5h4.003V40.5zm5 0V44.5H14.5V40.5zm5 0V44.5h4V40.5zm5 0V44.5h4V40.5zm5 0V44.5h4V40.5zm5 0V44.5h4V40.5zm5.001 0V44.5H39.5V40.5zm5 0V44.5H44.5V40.5zm5 0V44.5H49.5V40.5zm-45.001 5V49.5h4.002v-3.999zm5 0V49.5h4.003v-3.999zm5 0V49.5H14.5v-3.999zm5 0V49.5h4v-3.999zm5 0V49.5h4v-3.999zm5 0V49.5h4v-3.999zm5 0V49.5h4v-3.999zm5.001 0V49.5H39.5v-3.999zm5 0V49.5H44.5v-3.999zm5 0V49.5H49.5v-3.999z" fill="#ffc8c2"></path><text x="50%" y="50%" dy="11" style="text-anchor:middle;font-size: 30px; font-family: Roboto, RobotoDraft, Microsoft YaHei, Helvetica, Arial, sans-serif; fill: #ff6789; font-weight: 400">文</text></svg>