<svg xmlns="http://www.w3.org/2000/svg" width="270" height="90"><path d="M136.856 65.245c-.266.193.371 2.491.53 3.492.032.205.05.376.029.44-.107.33-2.233 1.982-2.68 2.643-.062.095-.092.17-.076.216.123.378 3.59.449 3.912.682.322.233 1.47 3.508 1.867 3.507.397 0 1.538-3.277 1.86-3.511.006-.013.05-.017.069-.024.51-.216 3.721-.307 3.84-.672.122-.378-2.64-2.474-2.763-2.852-.123-.378.87-3.7.549-3.933-.322-.233-3.17 1.746-3.567 1.747-.397 0-3.251-1.973-3.572-1.739zm99.329-48.986a9.91 9.91 0 0 1-9.91 9.91 9.91 9.91 0 0 1-9.912-9.91 9.91 9.91 0 0 1 9.911-9.91 9.91 9.91 0 0 1 9.91 9.91zm-38.638 20.203a3.092 3.092 0 0 1-3.093 3.092 3.092 3.092 0 0 1-3.092-3.092 3.092 3.092 0 0 1 3.092-3.092 3.092 3.092 0 0 1 3.093 3.092zm51.113 10.886a2.573 2.573 0 0 0-2.566 2.564 2.574 2.574 0 0 0 2.566 2.566 2.574 2.574 0 0 0 2.567-2.566 2.573 2.573 0 0 0-2.567-2.564zm0 1.027a1.53 1.53 0 0 1 1.537 1.537 1.53 1.53 0 0 1-1.537 1.539 1.53 1.53 0 0 1-1.537-1.54 1.53 1.53 0 0 1 1.537-1.536zm-25.267 1.47a3.38 3.38 0 0 0-3.37 3.372 3.379 3.379 0 0 0 3.37 3.369 3.38 3.38 0 0 0 3.37-3.37 3.382 3.382 0 0 0-3.37-3.37zm0 1.352a2.01 2.01 0 0 1 2.02 2.02 2.008 2.008 0 0 1-2.02 2.017 2.007 2.007 0 0 1-2.018-2.017c0-1.123.895-2.02 2.018-2.02zM65.145 77.141a15.179 15.179 0 0 0-14.973 12.861H80.13a15.179 15.179 0 0 0-14.986-12.861zm85.91 1.314a21.125 21.125 0 0 0-18.805 11.547h37.598a21.125 21.125 0 0 0-18.793-11.547zm-53.77 3.988c-.21 0-.417.02-.625.031-4.42.272-8.075 3.38-9.174 7.524h1.463a8.715 8.715 0 0 1 7.711-6.11c.207-.015.414-.03.625-.03A8.722 8.722 0 0 1 105.627 90h1.455c-1.149-4.341-5.099-7.555-9.797-7.555zM107.082 90h18.334a9.91 9.91 0 0 0-9.166-6.16 9.91 9.91 0 0 0-9.168 6.16zM270 82.478c-4.42.272-8.076 3.38-9.174 7.524h1.463a8.716 8.716 0 0 1 7.711-6.11zm-29.07.383a15.179 15.179 0 0 0-12.85 7.141h25.707a15.179 15.179 0 0 0-12.857-7.14zm-214.68.977a9.91 9.91 0 0 0-9.168 6.16h18.334a9.91 9.91 0 0 0-9.166-6.16zm180 0a9.91 9.91 0 0 0-9.168 6.16h18.334a9.91 9.91 0 0 0-9.166-6.16zm-25.537 4.053c-.144 0-.284.01-.426.02-1.766.108-3.34.896-4.502 2.087h1.447a5.9 5.9 0 0 1 3.055-1.125c.141-.01.282-.02.426-.02 1.313 0 2.521.427 3.504 1.145h1.435a6.861 6.861 0 0 0-4.94-2.107zm80.822-39.35c-.086-.014-.156-.01-.205.02-.783.439.577 8.16.201 8.975-.376.815-7.13 4.795-6.955 5.675.175.881 7.939 1.973 8.598 2.582.66.61 2.356 8.264 3.248 8.37.59.07 2.265-2.927 3.578-5.133V53.1c-.521.198-.952.34-1.121.32-.836-.099-6.05-4.669-7.344-4.878zm4.403-15.068c-.114.01-.19.033-.217.074-.22.331 1.88 3.091 1.898 3.488.018.397-1.833 3.332-1.586 3.643.248.31 3.524-.833 3.906-.727.014 0 .044.032.061.041v-6.361c-.14.153-.263.273-.326.297-.326.121-2.94-.516-3.736-.456zm-43.243 51.534c-.976.936-.343-1.017-1.683-.834-1.339.183-.204 1.894-1.396 1.255-1.191-.639.862-.64.274-1.857s-1.865.39-1.626-.94c.24-1.33.876.622 1.852-.314.975-.935-.948-1.653.391-1.836 1.34-.183-.32 1.024.87 1.663 1.192.64 1.28-1.412 1.868-.195.588 1.218-1.073.012-1.313 1.342-.24 1.331 1.738.78.763 1.716zM211.12 55.444c.362 2.548 2.892 1.88.866 3.468s-.773-.709-3.16-1.67c-2.388-.96-3.075 1.564-3.437-.984-.362-2.549 1-.315 3.027-1.903 2.026-1.587.183-3.444 2.57-2.484 2.388.961-.227 1.024.134 3.573zm-23.29-6.952a6.375 6.375 0 0 1-6.375 6.376 6.375 6.375 0 0 1-6.375-6.376 6.375 6.375 0 0 1 6.375-6.375 6.375 6.375 0 0 1 6.375 6.375zm-9.31-22.918a5.479 5.479 0 0 0-5.471 5.469 5.48 5.48 0 0 0 5.47 5.47 5.48 5.48 0 0 0 5.471-5.47 5.479 5.479 0 0 0-5.47-5.469zm0 1.168a4.29 4.29 0 0 1 4.3 4.3 4.292 4.292 0 0 1-4.3 4.302 4.292 4.292 0 0 1-4.301-4.301 4.291 4.291 0 0 1 4.3-4.301zm11.083 55.327c-.26 4.776 4.592 4.473.326 6.634-4.266 2.162-1.153-1.571-5.158-4.185-4.005-2.613-6.169 1.74-5.908-3.035.26-4.775 1.938-.212 6.203-2.374 4.266-2.162 1.578-6.212 5.583-3.599 4.005 2.613-.785 1.784-1.046 6.56zM60.326 53.15a2.574 2.574 0 0 0-2.566 2.567 2.574 2.574 0 0 0 2.566 2.566 2.574 2.574 0 0 0 2.567-2.566 2.574 2.574 0 0 0-2.567-2.567zm0 1.03c.855 0 1.54.682 1.54 1.537a1.53 1.53 0 0 1-1.54 1.537 1.53 1.53 0 0 1-1.537-1.537 1.53 1.53 0 0 1 1.537-1.537zm-35.861-4.16a3.38 3.38 0 0 0-3.371 3.37 3.382 3.382 0 0 0 3.37 3.37 3.38 3.38 0 0 0 3.37-3.37 3.379 3.379 0 0 0-3.37-3.37zm0 1.352c1.123 0 2.017.895 2.017 2.018a2.008 2.008 0 0 1-2.017 2.019 2.01 2.01 0 0 1-2.02-2.02c0-1.122.897-2.017 2.02-2.017zM.625 82.443c-.211 0-.417.02-.625.031v1.412c.207-.015.414-.03.625-.03 3.928 0 7.24 2.58 8.342 6.142h1.455c-1.149-4.341-5.1-7.555-9.797-7.555zm6.533-32.052C6.116 50.31 2.048 52.32 0 53.1v15.93c.67-1.126 1.27-2.099 1.535-2.247.783-.438 8.587.312 8.963-.504.376-.815-5.262-6.262-5.438-7.142-.175-.88 2.95-8.07 2.292-8.68-.042-.038-.107-.06-.194-.066zM2.406 31.043C2.09 30.955.686 32.883 0 33.629v6.363c.487.265 2.555 2.724 2.914 2.59.372-.14.297-3.606.516-3.937.219-.332 3.439-1.62 3.422-2.016-.018-.397-3.34-1.396-3.586-1.707-.248-.311-.477-3.773-.86-3.88zM45.05 51.306c-.537 1.24-.71-.805-1.873-.118-1.164.688.544 1.826-.802 1.699-1.345-.128.547-.925-.467-1.82-1.013-.894-1.568 1.083-1.862-.236-.294-1.32 1.048.234 1.585-1.006.538-1.24-1.514-1.157-.35-1.845 1.164-.688.101 1.069 1.447 1.197 1.346.128.633-1.798 1.646-.903 1.014.894-.985.426-.69 1.746.293 1.319 1.904.046 1.366 1.286zM24.836 36.634c-.552 2.514 2.051 2.774-.402 3.553-2.453.779-.476-.935-2.377-2.67-1.902-1.735-3.428.39-2.876-2.124.552-2.514 1.048.055 3.5-.724 2.454-.78 1.377-3.163 3.278-1.428 1.901 1.734-.571.88-1.123 3.393zm36.146-1.636a9.91 9.91 0 0 1-9.91 9.91 9.91 9.91 0 0 1-9.911-9.91 9.91 9.91 0 0 1 9.91-9.91 9.91 9.91 0 0 1 9.911 9.91zM9.127 12.19a5.479 5.479 0 0 0-5.47 5.469 5.48 5.48 0 0 0 5.47 5.47 5.479 5.479 0 0 0 5.469-5.47 5.477 5.477 0 0 0-5.469-5.469zm0 1.168c2.382 0 4.3 1.919 4.3 4.301a4.293 4.293 0 0 1-4.3 4.303 4.295 4.295 0 0 1-4.303-4.303c0-2.382 1.92-4.3 4.303-4.3zm30.66 59.87c1.344 4.59 5.818 2.689 2.515 6.147-3.303 3.459-1.61-1.098-6.256-2.23-4.647-1.131-5.238 3.694-6.582-.896-1.343-4.59 1.757-.845 5.06-4.303s-.58-6.383 4.067-5.252c4.646 1.132-.147 1.944 1.196 6.534zm115.543-53.55a2.574 2.574 0 0 0-2.566 2.567 2.574 2.574 0 0 0 2.566 2.566 2.573 2.573 0 0 0 2.565-2.566 2.573 2.573 0 0 0-2.565-2.566zm0 1.03a1.53 1.53 0 0 1 1.537 1.537 1.53 1.53 0 0 1-1.537 1.537 1.53 1.53 0 0 1-1.539-1.537 1.53 1.53 0 0 1 1.54-1.537zm-17.652 31.637a3.38 3.38 0 0 0-3.37 3.37 3.379 3.379 0 0 0 3.37 3.37 3.38 3.38 0 0 0 3.37-3.37 3.382 3.382 0 0 0-3.37-3.37zm0 1.351a2.01 2.01 0 0 1 2.02 2.02 2.008 2.008 0 0 1-2.02 2.017 2.007 2.007 0 0 1-2.018-2.017c0-1.123.895-2.02 2.018-2.02zM106.943 52.6c-.011-.087-.034-.153-.078-.19-.644-.626-7.654 2.884-8.543 2.757-.888-.127-6.633-5.463-7.426-5.043-.794.42.378 8.171-.018 8.977-.395.806-7.245 4.62-7.092 5.504.102.586 3.45 1.335 5.94 1.963 1.27.32 2.372.617 2.59.83.643.625 2.155 8.317 3.043 8.445.89.127 4.498-6.833 5.291-7.252.794-.42 8.577.52 8.973-.285a.318.318 0 0 0 .008-.204c-.223-1.02-3.31-4.345-4.642-6.086-.339-.443-.598-.815-.627-.983-.144-.829 2.746-7.132 2.576-8.431zM84.885 34.442c-.315.097-.456 2.477-.63 3.475-.037.205-.075.372-.115.426-.208.278-2.755 1.152-3.392 1.633-.09.07-.141.13-.142.179-.006.397 3.252 1.588 3.48 1.913.229.325.254 3.794.63 3.922.376.129 2.518-2.602 2.897-2.719.011-.01.054 0 .073 0 .553-.039 3.62.915 3.851.609.238-.318-1.696-3.197-1.69-3.594.006-.397 2.022-3.218 1.794-3.543-.23-.325-3.565.625-3.94.497-.377-.128-2.437-2.92-2.817-2.802zm37.64 37.819c-.293 1.32-.848-.657-1.862.237-1.013.895.88 1.69-.467 1.819-1.345.128.363-1.01-.801-1.698-1.164-.687-1.336 1.358-1.874.118-.538-1.24 1.073.033 1.367-1.287.294-1.32-1.705-.85-.691-1.745 1.013-.895.3 1.03 1.646.902 1.346-.128.283-1.884 1.447-1.197 1.164.688-.888.605-.35 1.845s1.88-.314 1.586 1.006zm-3.292-17.307c-.552 2.514 2.052 2.773-.402 3.552-2.453.779-.476-.935-2.377-2.67-1.901-1.735-3.428.39-2.876-2.124.552-2.514 1.048.055 3.501-.724s1.376-3.163 3.277-1.428c1.901 1.735-.571.88-1.123 3.394zm32.096-16.194a4.643 4.643 0 0 1-4.643 4.643 4.643 4.643 0 0 1-4.643-4.643 4.643 4.643 0 0 1 4.643-4.643 4.643 4.643 0 0 1 4.643 4.643zm-79.981-7.88a5.48 5.48 0 0 0-5.471 5.47 5.479 5.479 0 0 0 5.47 5.47 5.477 5.477 0 0 0 5.47-5.47 5.479 5.479 0 0 0-5.47-5.47zm0 1.168c2.382 0 4.3 1.92 4.3 4.302a4.291 4.291 0 0 1-4.3 4.301 4.293 4.293 0 0 1-4.303-4.3 4.295 4.295 0 0 1 4.303-4.303zm49.809 6.224c1.343 4.59 5.818 2.69 2.515 6.148-3.304 3.458-1.61-1.099-6.257-2.23-4.646-1.132-5.238 3.694-6.581-.896-1.344-4.59 1.756-.845 5.06-4.303 3.303-3.459-.58-6.384 4.066-5.252 4.647 1.131-.146 1.944 1.197 6.533zm81.081 28.165l-.959 2.086-.867 5.787c-.983-1.052-1.508-2.516-1.278-4.052.27-1.808 1.51-3.212 3.104-3.821zm4.622.617a4.878 4.878 0 0 1 1.943 4.652 4.866 4.866 0 0 1-2.556 3.581l.883-5.897-.147-.056-2.789 4.24-1.272-.19 1.075-2.07zm-.035-.236l-.046.069-2.92 4.345-1.183 2.278 1.596.24 2.645-4.022-.878 5.861.137-.067a5.049 5.049 0 0 0 .717-8.657zm-4.27-.687l-.176.058a5.049 5.049 0 0 0-1.97 8.373l.111.112.915-6.105zm0 0l-1.12 2.438 1.24 4.941 1.184-2.277z" fill-opacity=".11"/></svg>