<svg xmlns="http://www.w3.org/2000/svg" width="80" height="80"><path d="M44.331 23.546a12.071 12.071 0 0 0-6.75 4.528c-.563.76-.774.942-1.012.886a36.9 36.9 0 0 1-1.125-.225c-.465-.084-1.45-.38-2.18-.647-2.447-.886-3.502-1.083-5.85-1.083-2.208-.014-3.46.183-5.132.788-.873.323-1.238.604-1.42 1.069-.184.478.168 1.209.689 1.42.365.155.562.126 1.673-.254 2.84-.97 5.583-.914 8.831.197 1.013.337 2.236.717 2.728.83.479.112.914.224.942.253.028.028-.084.647-.225 1.378-.155.731-.281 1.477-.281 1.646 0 .183-.07.323-.14.323-.085 0-1.083-.309-2.222-.689-2.56-.858-3.854-1.055-6.272-.956-1.927.084-3.375.38-4.725.956-1.139.493-1.392 1.42-.59 2.152.365.31.871.268 2.559-.267.9-.282 1.603-.394 2.883-.45 2.039-.099 3.445.14 5.667.927.83.296 1.842.619 2.25.717.62.14.746.225.816.549.155.717.661 2.207.928 2.727.154.31.253.577.225.591-.112.127-2.166-.394-3.586-.9-2.236-.801-3.474-1.026-5.597-1.04-1.983 0-3.037.154-4.739.689-1.407.451-1.83.803-1.83 1.534 0 .422.085.633.38.872.479.422.647.408 2.138-.084 1.504-.507 3.473-.731 5.104-.577 1.42.126 1.927.253 4.107.998 1.8.605 3.08.886 4.823 1.055 1.11.099 1.125.099 2.208.985 1.181.97 3.178 2.01 4.542 2.377 1.335.366 3.867.435 5.287.14 3.911-.788 7.089-3.319 8.735-6.92 1.124-2.489 1.307-5.906.435-8.55-.759-2.362-2.601-4.795-4.725-6.243-.886-.604-2.503-1.364-3.543-1.645-1.337-.366-4.641-.408-6.006-.057zm5.288 2.39c1.702.436 2.925 1.154 4.317 2.532 2.068 2.053 2.897 4.204 2.77 7.214-.112 2.601-.9 4.387-2.784 6.3-2.263 2.279-5.61 3.263-8.76 2.574-.985-.21-3.431-1.266-3.291-1.42.042-.028.605-.253 1.252-.478.646-.211 1.28-.535 1.42-.703.365-.45.31-1.14-.127-1.59-.436-.421-.83-.464-1.575-.14-.605.253-2.63.76-3.051.76-.436 0-1.308-1.547-1.814-3.18-.085-.28-.028-.294 1.293-.379 2.35-.155 5.007-.97 5.372-1.631.338-.633.014-1.449-.66-1.716-.268-.098-.633-.027-1.562.282-1.266.436-2.91.717-4.134.717h-.717l.098-.914c.057-.492.211-1.308.366-1.8l.281-.9 1.294-.085c1.322-.098 3.572-.618 4.331-1.012.872-.45 1.111-1.364.493-1.969-.422-.436-.788-.436-2.068-.014-.563.197-1.336.394-1.73.436l-.702.098.492-.52c.998-1.04 2.953-2.151 4.5-2.531 1.194-.295 3.416-.267 4.696.07zM14.266 13.745a1.532 1.532 0 0 0-.52.52c-.14.282-.17 5.584-.14 25.904l.027 25.552.324.323.323.324h51.44l.324-.324.323-.323V14.28l-.323-.324-.323-.323-25.552-.028c-20.32-.029-25.622 0-25.903.14zM63.977 40v23.977H16.023l-.041-23.836c-.014-13.107 0-23.92.041-24.02.042-.14 4.922-.168 24.005-.14l23.949.042V40zM4.407 4.407L4 4.815V8.85c0 4.007 0 4.021.323 4.345.197.196.577.351.999.407 2.039.282 2.953 2.391 1.687 3.896-.464.534-.942.787-1.743.886-.45.056-.731.197-.942.45-.31.352-.323.464-.323 3.164s.014 2.813.323 3.165c.21.253.492.394.942.45.801.099 1.28.352 1.743.886 1.266 1.505.352 3.614-1.687 3.896-.422.056-.802.21-.999.407-.309.324-.323.394-.323 3.136 0 2.728.014 2.827.323 3.192.239.268.52.408 1.07.493 1.321.21 2.151 1.11 2.165 2.362.014 1.238-.843 2.18-2.166 2.391-.548.085-.83.225-1.069.492-.309.366-.323.465-.323 3.193 0 2.742.014 2.812.323 3.136.197.197.577.352.985.408.858.126 1.406.408 1.786.956.661.914.632 2.081-.085 2.939-.464.534-.942.787-1.743.886-.45.056-.731.196-.942.45-.31.352-.323.464-.323 3.164s.014 2.813.323 3.165c.21.253.492.393.942.45.801.099 1.28.352 1.743.886 1.266 1.505.352 3.614-1.687 3.895-.422.056-.802.211-.999.408C4 67.13 4 67.142 4 71.151v4.034l.408.407.408.408h8.057l.337-.352c.197-.183.352-.478.352-.661 0-2.292 2.658-3.431 4.148-1.786.479.535.534.675.703 1.701.057.324.211.633.45.816.338.267.549.281 3.136.281 2.588 0 2.799-.014 3.136-.281.239-.183.394-.492.45-.816.17-1.026.225-1.167.704-1.701 1.42-1.561 3.797-.703 4.106 1.477.056.421.21.801.408.998.323.31.393.323 3.15.323h2.84l.407-.407c.282-.282.408-.563.408-.858 0-1.448 1.533-2.63 2.954-2.25 1.055.281 1.828 1.237 1.828 2.25 0 .295.126.577.407.858l.408.407h2.842c2.812 0 2.826 0 3.164-.352.197-.183.352-.478.352-.66 0-2.293 2.658-3.432 4.148-1.787.479.535.534.675.703 1.702.057.323.211.632.45.815.338.268.549.282 3.137.282 2.587 0 2.798-.014 3.135-.282.239-.183.394-.492.45-.815.17-1.027.225-1.168.704-1.702 1.49-1.645 4.148-.506 4.148 1.786 0 .183.154.478.352.661.323.338.422.352 1.969.352 1.617 0 1.645 0 2.053-.407.238-.253.407-.563.407-.788 0-.225-.169-.534-.407-.788-.366-.366-.52-.407-1.252-.407h-.83l-.45-.9c-1.293-2.616-4.457-3.488-6.946-1.885-.731.464-1.716 1.716-1.857 2.377l-.098.408H56.65l-.17-.465c-.52-1.434-1.827-2.601-3.374-2.995-1.14-.282-2.068-.17-3.207.38-1.012.478-1.772 1.266-2.264 2.32l-.337.76h-2.616l-.253-.633c-.126-.352-.549-.97-.914-1.392-1.926-2.096-5.105-2.096-7.031 0-.366.421-.788 1.04-.914 1.392l-.253.633h-2.615l-.338-.76c-.197-.408-.576-1.013-.872-1.336-.632-.689-1.983-1.363-2.981-1.49-.985-.127-2.306.224-3.234.857-.76.52-1.645 1.674-1.814 2.334l-.085.394h-2.728l-.17-.464c-.52-1.435-1.827-2.602-3.375-2.996-1.138-.281-2.067-.169-3.206.38-1.012.478-1.772 1.266-2.264 2.32l-.337.76H6.39V68.699l.76-.337c1.518-.69 2.446-1.926 2.77-3.614.21-1.167-.07-2.405-.802-3.474-.52-.759-1.673-1.645-2.348-1.814l-.38-.084v-2.728l.465-.169c1.449-.52 2.587-1.828 2.995-3.403.548-2.18-.577-4.472-2.7-5.442l-.76-.337V44.68l.633-.253c.352-.127.97-.55 1.392-.914 2.096-1.927 2.096-5.105 0-7.031-.421-.366-1.04-.788-1.392-.914l-.633-.253V32.7l.76-.337c1.463-.675 2.419-1.884 2.757-3.501.421-2.082-.774-4.345-2.728-5.19l-.788-.337V20.664l.788-.337c1.955-.844 3.15-3.108 2.728-5.19-.337-1.617-1.294-2.826-2.757-3.501l-.76-.337V6.39H11.3l.337.76c.676 1.462 1.885 2.418 3.502 2.756 2.081.422 4.345-.774 5.19-2.728l.336-.788h2.672l.337.788c.844 1.955 3.108 3.15 5.19 2.728 1.616-.337 2.826-1.294 3.5-2.757l.338-.76h2.616l.252.633c.127.352.548.97.914 1.393 1.927 2.095 5.105 2.095 7.031 0 .366-.422.788-1.04.914-1.393l.254-.632h2.615l.338.76c.689 1.518 1.926 2.446 3.614 2.77.773.14 1.055.126 1.828-.07 1.575-.408 2.883-1.547 3.403-2.996l.169-.464H59.377l.084.38c.168.675 1.055 1.828 1.814 2.348 1.07.73 2.306 1.012 3.474.801 1.687-.323 2.925-1.25 3.614-2.77l.337-.76h4.909v4.907l-.76.338c-1.055.492-1.842 1.252-2.32 2.264-.548 1.14-.66 2.068-.38 3.207.394 1.546 1.561 2.854 2.995 3.375l.465.169v2.729l-.38.084c-.675.169-1.828 1.055-2.35 1.814-.632.928-.984 2.25-.857 3.234.127.999.802 2.349 1.491 2.982.323.295.928.675 1.336.872l.76.337v2.615l-.633.253c-.352.127-.97.548-1.392.914-2.096 1.927-2.096 5.105 0 7.031.421.366 1.04.788 1.392.914l.633.254v2.615l-.76.337c-1.055.493-1.842 1.252-2.32 2.265-.548 1.139-.66 2.066-.38 3.206.394 1.547 1.561 2.855 2.995 3.375l.465.17V59.377l-.408.099c-.66.14-1.913 1.124-2.377 1.856-.59.914-.914 2.25-.802 3.179.127.998.802 2.348 1.491 2.98.323.296.928.676 1.336.873l.76.337v3.263c.014 3.417.027 3.544.66 3.868.493.267.887.196 1.323-.24l.407-.407V67.129l-.352-.338c-.183-.197-.478-.352-.66-.352-.662 0-1.393-.309-1.871-.773-.971-.985-.942-2.448.084-3.375.535-.479.675-.535 1.702-.704.323-.056.632-.21.815-.45.268-.337.282-.548.282-3.136 0-2.587-.014-2.798-.282-3.135-.183-.24-.492-.394-.815-.45-1.027-.17-1.168-.226-1.702-.704-1.645-1.49-.506-4.148 1.786-4.148.183 0 .478-.154.661-.352.352-.337.352-.352.352-3.164v-2.84l-.407-.408c-.282-.282-.563-.408-.858-.408-1.448 0-2.63-1.533-2.25-2.954.281-1.055 1.237-1.828 2.25-1.828.295 0 .577-.126.858-.407l.407-.408v-2.842c0-2.757-.014-2.826-.323-3.15-.197-.197-.577-.352-.998-.408-2.18-.31-3.038-2.686-1.477-4.106.535-.479.675-.534 1.701-.703.324-.057.633-.211.816-.45.267-.338.281-.549.281-3.137 0-2.587-.014-2.798-.281-3.135-.183-.239-.492-.394-.816-.45-1.026-.17-1.167-.225-1.701-.704-1.645-1.49-.506-4.148 1.786-4.148.183 0 .478-.155.661-.352l.352-.337V4.815l-.408-.408L75.185 4H71.15c-4.008 0-4.022 0-4.346.324-.197.196-.352.576-.408.998-.281 2.039-2.39 2.954-3.895 1.688-.535-.465-.788-.942-.886-1.744-.057-.45-.197-.73-.45-.942C60.811 4.014 60.7 4 58 4s-2.813.014-3.165.323c-.253.211-.393.493-.45.942-.098.802-.352 1.28-.886 1.744-.857.717-2.025.745-2.939.084-.548-.38-.83-.928-.956-1.786-.055-.408-.21-.788-.407-.984-.324-.31-.394-.324-3.137-.324-2.728 0-2.826.014-3.192.324-.268.238-.408.52-.492 1.069-.211 1.321-1.154 2.18-2.391 2.165-1.252-.013-2.152-.843-2.363-2.165-.084-.549-.225-.83-.492-1.07-.366-.309-.464-.323-3.192-.323-2.742 0-2.813.014-3.136.324-.197.196-.352.576-.408.998-.281 2.039-2.39 2.954-3.895 1.688-.534-.465-.788-.942-.886-1.744-.057-.45-.197-.73-.45-.942C24.81 4.014 24.697 4 21.997 4s-2.812.014-3.164.323c-.253.211-.394.493-.45.942-.1.802-.353 1.28-.887 1.744-1.504 1.266-3.614.352-3.895-1.688-.057-.422-.211-.802-.408-.998-.323-.324-.337-.324-4.345-.324H4.816z" fill="#eee"/></svg>