<svg xmlns="http://www.w3.org/2000/svg" width="50" height="50"><path d="M0 0v.586L.586 0zm2.003 0L0 2.003v2.581L4.584 0zm3.995 0L0 5.998v2.589L8.587 0zM10 0L0 10v2.585L12.585 0zm3.998 0L0 13.998v2.586L16.584 0zm3.999 0L0 17.997v2.589L20.586 0zm4.002 0L0 21.995v2.59L24.584 0zm3.999 0L0 26.002v2.58L28.583 0zm3.998 0L0 30v2.585L32.585 0zm4.002 0L0 33.998v2.586L36.584 0zm3.999 0L0 37.997v2.585L40.582 0zm3.998 0L0 42v2.584L44.584 0zm4.003 0L0 45.994v2.589L48.583 0zm3.998 0L0 50h2.585L49.289 3.288l.707-.707zm0 3.998L4.006 50h2.585L49.297 7.294 50 6.591zm0 4.003L8.001 49.996h2.581l38.707-38.703.707-.707zm0 3.998L12 49.996h2.585L49.29 15.291l.707-.707zm0 3.999L15.998 50h2.589l30.702-30.703.707-.707zm0 4.002L20 49.996h2.585l26.704-26.704.707-.707zm0 3.998L23.998 50h2.586l22.705-22.71.707-.706zm0 3.999L28.005 50h2.585l18.707-18.707.703-.703zm0 4.002L32 49.996h2.585L49.29 35.291l.707-.707zm0 3.999L35.998 49.996h2.585L49.289 39.29l.707-.706zm0 3.998l-10 10h2.589l6.704-6.704.707-.707zm0 4.002l-5.998 5.998h2.586l2.705-2.706.707-.706zm0 3.999L47.997 50H50z" fill="#f9df83" paint-order="stroke fill markers"/></svg>