<svg xmlns="http://www.w3.org/2000/svg" width="50" height="50"><path d="M.125 0l49.871 49.875v-1.878L2.003 0zm3.994 0L50 45.877v-1.879L5.994 0zm4.006 0L50 41.875v-1.879L10 0H8.122zm3.999 0L50 37.876v-1.878L13.998 0H12.12zm3.998 0L50 33.878v-1.879L17.997 0h-1.878zm4.003 0L50 29.875v-1.878L22 0h-1.88zm3.998 0L50 25.877v-1.879L26.002 0zm3.995 0L50 21.878V20L29.992 0zm4.006 0L50 17.876v-1.878L33.998 0H32.12zm3.998 0L50 13.878v-1.879L37.997 0h-1.878zm3.999 0L50 9.88V8l-8.005-8h-1.878zm4.002 0L50 5.877V3.998L45.998 0h-1.879zm3.999 0L50 1.878V0zM0 2.003v1.875l46.119 46.118h1.878zm0 3.995v1.878L42.12 50h1.878zM0 10v1.875L38.118 50h1.878zm0 3.998v1.879l34.12 34.12h1.878zm0 3.999v1.878l30.12 30.121H32zm0 4.002v1.879l26.119 26.118h1.878zm0 3.999v1.878l22.12 22.12h1.878L0 26.002zm0 3.998v1.882l18.122 18.118H20zm0 4.002v1.879l14.12 14.12h1.878zm0 3.999v1.878l10.12 10.121H12zm0 3.998v1.883L6.122 50h1.879L0 41.992zm0 4.003v1.878l2.12 2.12h1.878z" fill="#ffc8c2" paint-order="stroke fill markers"/></svg>