<svg xmlns="http://www.w3.org/2000/svg" width="50" height="50"><path d="M.503 0l3.182 3.182L6.867 0zm7.07 0l3.183 3.182L13.938 0zm7.068 0l3.186 3.178L21.005 0h-6.36zm7.071 0l3.186 3.182L28.08 0zm7.075 0l3.178 3.182L35.147 0zm7.067 0l3.182 3.182L42.218 0zm7.071 0l3.182 3.182L49.29 0zM21.361.351l-3.183 3.183 3.183 3.182 3.182-3.182zm-14.143 0L4.044 3.537l3.178 3.186 3.182-3.186L7.218.355zm7.071 0l-3.178 3.186 3.182 3.183 3.182-3.183L14.293.36zm14.143 0l-3.183 3.183 3.183 3.182 3.182-3.182L28.432.355zm7.067 0L32.32 3.534l3.183 3.186 3.182-3.186L35.503.355zm14.146 0l-3.182 3.183L49.64 6.72l.355-.356V.707l-.351-.352zM.147.36L0 .506v6.062l.151.152 3.182-3.186zm42.423 0l-3.175 3.178 3.175 3.186 3.186-3.186L42.57.363zM10.756 3.893L7.574 7.075l3.178 3.182 3.186-3.182zm7.067 0l-3.178 3.182 3.182 3.182 3.182-3.182-3.182-3.182zm7.075 0l-3.182 3.182 3.182 3.178 3.182-3.178zm7.067 0l-3.178 3.182 3.178 3.182 3.186-3.182zm-28.28 0L.503 7.075l3.182 3.182 3.182-3.182zm35.351 0l-3.178 3.182 3.178 3.182 3.182-3.182zm7.068 0l-3.175 3.182 3.175 3.182 3.185-3.182-3.182-3.182zM14.289 7.426l-3.182 3.182 3.182 3.183 3.183-3.179zm7.072 0l-3.183 3.186 3.183 3.179 3.182-3.183zm7.07 0l-3.182 3.182 3.183 3.183 3.182-3.183zm-28.284 0L0 7.577v6.066l.151.151 3.182-3.186L.147 7.43zm7.071 0L4.04 10.608l3.178 3.183 3.183-3.183L7.218 7.43zm28.285 0l-3.183 3.182 3.183 3.183 3.182-3.183-3.182-3.178zm7.067 0l-3.175 3.182 3.175 3.183 3.186-3.183L42.57 7.43zm7.071 0l-3.178 3.182 3.178 3.183.355-.356v-5.65l-.355-.355zM24.898 10.96l-3.186 3.182 3.186 3.182 3.182-3.182zm-21.213 0L.503 14.138l3.182 3.186 3.182-3.186-3.182-3.174zm7.067 0l-3.178 3.178 3.182 3.186 3.182-3.182zm7.075 0l-3.182 3.182 3.182 3.182 3.178-3.182zm14.138 0l-3.174 3.178 3.174 3.186 3.186-3.186-3.186-3.174zm7.071 0l-3.178 3.178 3.178 3.186 3.182-3.186-3.182-3.174zm7.068 0l-3.175 3.178 3.175 3.186 3.185-3.186-3.182-3.174zM.15 14.494l-.151.15v6.067l.151.147 3.182-3.182-3.186-3.182zm7.071 0l-3.178 3.182 3.178 3.182 3.182-3.182zm7.071 0l-3.182 3.182 3.182 3.182 3.182-3.182zm7.068 0l-3.179 3.182 3.182 3.182 3.182-3.182-3.182-3.182zm7.074 0l-3.182 3.182 3.182 3.182 3.183-3.182zm7.068 0l-3.175 3.182 3.175 3.182 3.186-3.182-3.183-3.182zm7.07 0L39.4 17.676l3.175 3.182 3.186-3.182zm7.072 0l-3.179 3.182 3.183 3.182.351-.352V14.85zM3.689 18.03L.506 21.209l3.183 3.183 3.182-3.179zm7.067 0l-3.179 3.182 3.183 3.179 3.182-3.179-3.182-3.182zm7.075 0l-3.182 3.182 3.182 3.179 3.178-3.175zm7.067 0l-3.182 3.182 3.186 3.179 3.182-3.179-3.182-3.182zm7.071 0l-3.178 3.182 3.178 3.179 3.182-3.179zm7.071 0l-3.178 3.178 3.178 3.183 3.182-3.183zm7.067 0l-3.174 3.178 3.178 3.183 3.182-3.179-3.182-3.182zM.151 21.565l-.151.15v6.063l.151.15 3.182-3.181-3.186-3.182zm7.071 0l-3.178 3.182 3.178 3.182 3.182-3.182zm7.071 0l-3.182 3.182 3.186 3.182 3.178-3.182zm7.071 0l-3.182 3.182 3.182 3.182 3.182-3.182zm7.071 0l-3.182 3.182 3.182 3.182 3.183-3.182zm7.068 0l-3.179 3.182 3.182 3.182 3.183-3.182-3.183-3.182zm7.07 0L39.4 24.743l3.175 3.186 3.186-3.182zm7.076 0l-3.183 3.182 3.183 3.182.351-.352V21.92zM3.692 25.098L.506 28.28l3.183 3.183L6.87 28.28l-3.182-3.182zm7.068 0L7.577 28.28l3.183 3.183 3.182-3.179zm7.07 0l-3.181 3.186 3.182 3.179 3.178-3.179zm7.068 0l-3.182 3.186 3.186 3.179 3.178-3.179-3.178-3.186zm7.071 0l-3.182 3.186 3.182 3.179 3.182-3.183zm7.071 0l-3.182 3.182 3.182 3.186 3.182-3.186zm7.071 0L42.93 28.28l3.186 3.183 3.178-3.179zM.151 28.636l-.151.15v6.067L.151 35l3.182-3.182zm7.067 0L4.04 31.818 7.218 35l3.183-3.182zm7.075 0l-3.186 3.182 3.186 3.178 3.179-3.174zm7.068 0l-3.183 3.182 3.183 3.178 3.182-3.174zm7.07 0l-3.182 3.182 3.183 3.178 3.178-3.174-3.175-3.186zm7.068 0l-3.182 3.182L35.503 35l3.182-3.182-3.182-3.182zm7.075 0l-3.182 3.182L42.574 35l3.182-3.182zm7.07 0l-3.181 3.182 3.182 3.178.351-.351v-5.658zM3.69 32.169L.503 35.351l3.182 3.186 3.182-3.186-3.182-3.182zm7.067 0l-3.182 3.182 3.182 3.183 3.182-3.183zm7.07 0l-3.181 3.182 3.182 3.183 3.178-3.183zm7.068 0l-3.182 3.182 3.186 3.183 3.178-3.183-3.178-3.182zm7.071 0l-3.182 3.182 3.182 3.183 3.182-3.183zm7.071 0l-3.182 3.182 3.182 3.186 3.182-3.186-3.182-3.178zm7.071 0l-3.182 3.182 3.182 3.183 3.182-3.183-3.182-3.178zm-31.814 3.534l-3.186 3.186 3.182 3.182 3.183-3.182zm7.068 0l-3.183 3.186 3.183 3.178 3.182-3.178zm7.07 0l-3.182 3.186 3.183 3.182 3.182-3.182zm-28.28.004l-.151.15v6.067l.151.15 3.182-3.185-3.186-3.182zm7.071 0l-3.178 3.182 3.178 3.182 3.182-3.182zm28.284 0l-3.182 3.182 3.182 3.182 3.183-3.182zm7.068 0l-3.175 3.182 3.175 3.182 3.186-3.182-3.183-3.182zm7.075 0l-3.183 3.182 3.183 3.182.351-.355v-5.654zM17.83 39.24l-3.182 3.183 3.182 3.182 3.178-3.182zm7.067 0l-3.182 3.183 3.186 3.182 3.182-3.182-3.182-3.183zm-14.138 0l-3.183 3.183 3.179 3.182 3.186-3.182zm21.209 0l-3.178 3.183 3.178 3.182 3.186-3.182zm14.142 0l-3.182 3.183 3.182 3.182 3.182-3.182zm-42.422 0L.506 42.423l3.183 3.182 3.182-3.182-3.182-3.179zm35.351 0l-3.178 3.183 3.178 3.182 3.182-3.182-3.182-3.179zm-17.676 3.534l-3.182 3.182 3.182 3.182 3.182-3.182zm-7.067 0l-3.186 3.182 3.182 3.186 3.182-3.186-3.182-3.178zm14.138 0l-3.182 3.182 3.182 3.186 3.183-3.186-3.183-3.178zm21.214 0l-3.183 3.182 3.179 3.186.355-.355v-5.658l-.351-.351zm-49.502.008l-.147.15v6.066l.151.148 3.182-3.186-3.186-3.175zm7.071 0L4.04 45.96l3.178 3.186 3.183-3.186-3.183-3.175zm28.285 0L32.32 45.96l3.183 3.186 3.182-3.186-3.182-3.175zm7.067 0l-3.175 3.178 3.175 3.186 3.186-3.186-3.186-3.175zm-24.743 3.533l-3.182 3.182.502.503h5.36l.502-.503zm7.067 0l-3.178 3.182.502.503h5.36l.502-.503-3.182-3.182zm-21.21 0L.504 49.497l.506.503h5.355l.503-.503-3.182-3.178zm7.068 0l-3.178 3.182.502.503h5.356l.506-.503-3.186-3.178zm21.213 0l-3.174 3.182.498.503h5.356l.506-.503-3.186-3.178zm7.071 0l-3.178 3.182.503.503h5.355l.502-.503-3.182-3.178zm7.068 0l-3.175 3.182.503.503h5.355l.502-.503-3.182-3.178zM21.36 49.85l-.152.151h.303zm-21.214 0L0 50h.299zm7.071 0l-.15.151h.302zm7.068 0l-.148.151h.299zm14.146 0L28.28 50h.303zm7.067 0L35.35 50h.299zm7.07 0l-.146.151h.298zm7.072 0L49.49 50h.302z" fill="#a4cec0" paint-order="stroke fill markers"/></svg>